<?xml version="1.0" standalone="no"?>
<!DOCTYPE svg PUBLIC "-//W3C//DTD SVG 1.1//EN" "http://www.w3.org/Graphics/SVG/1.1/DTD/svg11.dtd" >
<svg>
<metadata>
Created by FontForge 20090622 at Wed Feb 28 16:08:36 2018
 By deploy user
Copyright 1990-1992 as an unpublished work by Bitstream Inc.  All rights reserved. Confidential. Copyright (c) ParaType, Inc., 2002. All rights reserved.
</metadata>
<defs>
<font id="GeoSlb712LightCBT-Italic" horiz-adv-x="500" >
  <font-face 
    font-family="GeoSlb712LightC BT"
    font-weight="300"
    font-style="italic"
    font-stretch="normal"
    units-per-em="1000"
    panose-1="0 0 4 0 0 0 0 0 0 0"
    ascent="764"
    descent="-236"
    x-height="488"
    cap-height="694"
    bbox="-178 -236 1110 925"
    underline-thickness="50"
    underline-position="-50"
    slope="-13.5"
    unicode-range="U+0020-U+F6D4"
  />
<missing-glyph horiz-adv-x="233" 
 />
    <glyph glyph-name=".notdef" horiz-adv-x="233" 
 />
    <glyph glyph-name=".null" horiz-adv-x="0" 
 />
    <glyph glyph-name="nonmarkingreturn" horiz-adv-x="333" 
 />
    <glyph glyph-name="space" unicode=" " horiz-adv-x="233" 
 />
    <glyph glyph-name="space" unicode="&#xa0;" horiz-adv-x="233" 
 />
    <glyph glyph-name="exclam" unicode="!" horiz-adv-x="257" 
d="M73 188l61 308l47 198h60l-54 -222l-83 -284h-31zM12 0l25 104h58l-25 -104h-58z" />
    <glyph glyph-name="quotedbl" unicode="&#x22;" horiz-adv-x="269" 
d="M91 700v-270h-42v270h42zM220 700v-270h-42v270h42z" />
    <glyph glyph-name="numbersign" unicode="#" horiz-adv-x="769" 
d="M447 710l-85 -243h132l86 243h54l-85 -243h157l-15 -44h-158l-49 -138h170l-15 -44h-171l-85 -241h-55l86 241h-132l-87 -241h-54l85 241h-163l15 44h164l49 138h-176l14 44h178l86 243h54zM478 423h-132l-48 -138h131z" />
    <glyph glyph-name="dollar" unicode="$" horiz-adv-x="523" 
d="M-18 7l44 188h46l-21 -94q42 -38 118 -58l59 296l-38 27q-52 38 -76 73t-24 83q0 75 52 125.5t132 50.5q16 0 25 -1l13 66h41l-15 -74q58 -21 101 -56l13 54h45l-43 -186h-45l19 83q-49 42 -100 59l-54 -271l42 -29q93 -65 93 -154q0 -84 -57 -138t-153 -57l-21 -103h-40
l21 107q-56 8 -121 51l-10 -42h-46zM240 400l50 253q-5 0 -13 1.5t-11 1.5q-50 0 -86 -37t-36 -89q0 -63 70 -112zM262 312l-54 -273q65 3 105.5 45t40.5 103q0 60 -71 110z" />
    <glyph glyph-name="percent" unicode="%" horiz-adv-x="752" 
d="M54 439q0 115 52.5 191t123.5 76q49 0 76.5 -36t27.5 -103q0 -116 -60 -199q-48 -66 -114 -66q-50 0 -78 35.5t-28 101.5zM144 -14l426 720h43l-426 -720h-43zM415 124q0 115 53 191t124 76q49 0 76.5 -36.5t27.5 -102.5q0 -116 -60 -199q-49 -67 -114 -67
q-50 0 -78.5 36.5t-28.5 101.5zM583 348q-47 0 -83 -63.5t-36 -158.5q0 -47 17 -72.5t47 -25.5q47 0 83.5 64.5t36.5 159.5q0 46 -17.5 71t-47.5 25zM222 664q-47 0 -83.5 -63.5t-36.5 -158.5q0 -46 17.5 -72t47.5 -26q47 0 83.5 64.5t36.5 159.5q0 46 -17.5 71t-47.5 25z
" />
    <glyph glyph-name="ampersand" unicode="&#x26;" horiz-adv-x="667" 
d="M393 63q-86 -77 -188 -77q-78 0 -133 57t-55 140q0 151 208 242l-21 57q-13 33 -13 74q0 62 43 106t106 44q60 0 96 -34.5t36 -90.5q0 -107 -172 -179l115 -246q59 59 101 187h125l-11 -47h-78q-45 -116 -115 -190l28 -60h107l-12 -46h-138zM247 380
q-89 -40 -130.5 -86.5t-41.5 -109.5q0 -61 41.5 -102.5t102.5 -41.5q73 0 152 70zM279 448q138 55 138 132q0 33 -21 55t-54 22q-42 0 -68.5 -27.5t-26.5 -70.5q0 -27 11 -57z" />
    <glyph glyph-name="quotesingle" unicode="'" horiz-adv-x="139" 
d="M91 700v-270h-42v270h42z" />
    <glyph glyph-name="parenleft" unicode="(" horiz-adv-x="315" 
d="M373 644q-124 -55 -196 -183t-72 -298q0 -171 88 -269l-15 -65q-131 130 -131 346q0 191 104 347q90 134 237 184z" />
    <glyph glyph-name="parenright" unicode=")" horiz-adv-x="315" 
d="M-59 -109q125 55 197 183t72 298q0 172 -88 270l15 64q130 -129 130 -346q0 -190 -104 -346q-91 -135 -236 -185z" />
    <glyph glyph-name="asterisk" unicode="*" horiz-adv-x="449" 
d="M416 616l14 -46l-125 -40l78 -106l-39 -28l-77 108l-76 -108l-38 29l78 105l-127 40l15 46l125 -42l-1 132h49l-1 -132z" />
    <glyph glyph-name="plus" unicode="+" horiz-adv-x="833" 
d="M436 595v-278h273v-39h-273v-278h-39v278h-273v39h273v278h39z" />
    <glyph glyph-name="comma" unicode="," horiz-adv-x="240" 
d="M17 0l25 104h60l-25 -104q-15 -63 -36.5 -89.5t-72.5 -34.5l9 40q26 3 38.5 22t21.5 62h-20z" />
    <glyph glyph-name="hyphen" unicode="-" horiz-adv-x="283" 
d="M15 223l12 51h179l-13 -51h-178z" />
    <glyph glyph-name="hyphen" unicode="&#xad;" horiz-adv-x="283" 
d="M15 223l12 51h179l-13 -51h-178z" />
    <glyph glyph-name="period" unicode="." horiz-adv-x="240" 
d="M16 0l25 104h57l-25 -104h-57z" />
    <glyph glyph-name="slash" unicode="/" horiz-adv-x="278" 
d="M70 -93l88 799h46l-88 -799h-46z" />
    <glyph glyph-name="zero" unicode="0" horiz-adv-x="479" 
d="M15 222q0 145 67 300q37 85 97.5 134t121.5 49q78 0 120 -59.5t42 -172.5q0 -105 -30 -205t-80 -172q-77 -109 -176 -109q-76 0 -119 61t-43 174zM296 658q-74 0 -134 -90q-42 -63 -71 -182q-25 -99 -25 -176q0 -84 30 -129.5t83 -45.5q77 0 135 90q39 58 70 183
q28 110 28 177q0 83 -31.5 128t-84.5 45z" />
    <glyph glyph-name="one" unicode="1" horiz-adv-x="479" 
d="M40 0l11 46h95l145 604h-95l10 44h150l-155 -648h88l-11 -46h-238z" />
    <glyph glyph-name="two" unicode="2" horiz-adv-x="479" 
d="M-14 0q11 100 63 168.5t156 140.5l65 45q76 53 108.5 94t32.5 104q0 45 -31.5 76t-78.5 31q-64 0 -109 -55.5t-66 -163.5h-51q22 128 83.5 197.5t147.5 69.5q68 0 114 -44t46 -107q0 -79 -40.5 -131.5t-130.5 -115.5l-61 -42q-40 -28 -58 -42t-47 -41.5t-47 -59.5
t-30 -73h263l44 180h48l-55 -231h-366z" />
    <glyph glyph-name="three" unicode="3" horiz-adv-x="479" 
d="M9 228h50v-17q0 -86 36 -131t104 -45q70 0 119 51t49 123q0 131 -187 133l12 47h13q97 0 152.5 41.5t55.5 109.5q0 52 -35 84.5t-90 32.5q-57 0 -93 -38t-48 -110h-52q13 91 66.5 143.5t130.5 52.5q76 0 125 -46.5t49 -117.5q0 -64 -37 -111.5t-106 -69.5q99 -47 99 -145
q0 -81 -51 -145q-67 -84 -171 -84q-91 0 -141 57.5t-50 164.5v20z" />
    <glyph glyph-name="four" unicode="4" horiz-adv-x="479" 
d="M302 46h89l-11 -46h-238l11 46h95l39 154h-266l-21 59l412 447h55l-115 -459h98l-11 -47h-98zM298 247l92 376l-347 -376h255z" />
    <glyph glyph-name="five" unicode="5" horiz-adv-x="479" 
d="M147 394q55 37 114 37q70 0 116.5 -49.5t46.5 -126.5q0 -104 -66 -183q-71 -86 -164 -86q-78 0 -129.5 53t-51.5 139q0 14 3 50h51q-3 -33 -3 -51q0 -66 35.5 -104t94.5 -38q71 0 123 65.5t52 155.5q0 59 -33.5 93.5t-88.5 34.5q-59 0 -114 -51l-47 35l78 326h336
l-43 -177h-47l31 131h-233z" />
    <glyph glyph-name="six" unicode="6" horiz-adv-x="479" 
d="M114 377q80 64 149 64q67 0 112 -52t45 -131q0 -98 -49 -170q-69 -102 -170 -102q-79 0 -124 59t-45 166q0 77 34 196q30 106 87 189q76 109 172 109q65 0 101.5 -44t36.5 -126q0 -12 -2 -38h-53q3 22 3 43q0 57 -23.5 87.5t-66.5 30.5q-63 0 -117.5 -72t-89.5 -209z
M99 307q-14 -60 -14 -113q0 -76 31.5 -118t85.5 -42q66 0 115 62t49 155q0 65 -30 103t-79 38q-67 0 -158 -85z" />
    <glyph glyph-name="seven" unicode="7" horiz-adv-x="479" 
d="M40 0l11 46h84q56 274 309 604h-297l-29 -123h-48l40 167h404l-10 -50q-255 -319 -314 -598h81l-11 -46h-220z" />
    <glyph glyph-name="eight" unicode="8" horiz-adv-x="479" 
d="M172 373q-67 55 -67 134q0 81 58.5 139.5t140.5 58.5q75 0 122.5 -46t47.5 -118q0 -63 -35.5 -112t-98.5 -74q75 -54 75 -143q0 -94 -65.5 -159.5t-161.5 -65.5q-81 0 -130 47.5t-49 124.5q0 76 43.5 134t119.5 80zM232 339q-70 0 -119.5 -51t-49.5 -126
q0 -56 35.5 -91.5t92.5 -35.5q71 0 120.5 51t49.5 124q0 57 -36 93t-93 36zM304 659q-62 0 -105 -45t-43 -110q0 -51 32.5 -83.5t84.5 -32.5q61 0 105 45t44 109q0 51 -33 84t-85 33z" />
    <glyph glyph-name="nine" unicode="9" horiz-adv-x="479" 
d="M365 314q-80 -64 -148 -64q-67 0 -112 52t-45 131q0 99 48 169q70 103 170 103q79 0 124 -59t45 -166q0 -77 -34 -196q-31 -108 -87 -190q-76 -109 -172 -109q-65 0 -101.5 44.5t-36.5 125.5q0 13 2 39h53q-3 -22 -3 -42q0 -57 24 -88t67 -31q63 0 117 72t89 209z
M380 383q15 65 15 114q0 75 -32 117t-86 42q-66 0 -115 -61.5t-49 -154.5q0 -65 30 -103t79 -38q68 0 158 84z" />
    <glyph glyph-name="colon" unicode=":" horiz-adv-x="263" 
d="M19 0l25 104h57l-25 -104h-57zM111 384l25 104h57l-25 -104h-57z" />
    <glyph glyph-name="semicolon" unicode=";" horiz-adv-x="263" 
d="M17 0l25 104h60l-25 -104q-15 -63 -36.5 -89.5t-72.5 -34.5l9 40q26 3 38.5 22t21.5 62h-20zM111 384l25 104h57l-25 -104h-57z" />
    <glyph glyph-name="less" unicode="&#x3c;" horiz-adv-x="833" 
d="M704 505l-510 -207l510 -207v-43l-575 235v30l575 236v-44z" />
    <glyph glyph-name="equal" unicode="=" horiz-adv-x="833" 
d="M709 406v-39h-585v39h585zM709 229v-39h-585v39h585z" />
    <glyph glyph-name="greater" unicode="&#x3e;" horiz-adv-x="833" 
d="M704 313v-30l-575 -235v43l510 207l-510 207v44z" />
    <glyph glyph-name="question" unicode="?" horiz-adv-x="444" 
d="M58 0l25 104h58l-25 -104h-58zM117 181l33 210q21 -3 40 -3q83 0 134 45t51 111q0 48 -32 78t-82 30q-44 0 -80 -29t-52 -80h-60q22 77 72.5 119.5t118.5 42.5q76 0 124.5 -46.5t48.5 -118.5q0 -87 -65.5 -145.5t-174.5 -62.5l-41 -151h-35z" />
    <glyph glyph-name="at" unicode="@" horiz-adv-x="1000" 
d="M595 228l31 124q-22 99 -114 99q-74 0 -124.5 -67.5t-50.5 -165.5q0 -57 28 -88.5t78 -31.5q54 0 95.5 35.5t56.5 94.5zM636 404l30 63h39l-67 -270q-10 -37 -10 -53q0 -45 57 -45q48 0 99 37q49 36 79 100.5t30 138.5q0 133 -97 214.5t-257 81.5q-164 0 -278 -94
q-151 -125 -151 -328q0 -159 107.5 -254.5t289.5 -95.5q165 0 304 94l14 -22q-143 -107 -316 -107q-184 0 -303 90q-147 111 -147 301q0 160 97 279q142 174 388 174q163 0 270 -82q127 -98 127 -246q0 -170 -119 -264q-68 -54 -149 -54q-94 0 -94 71q0 5 2 19
q-50 -90 -142 -90q-75 0 -114 40.5t-39 118.5q0 112 66 189t159 77q95 0 125 -83z" />
    <glyph glyph-name="A" unicode="A" horiz-adv-x="611" 
d="M184 312h250l-36 338h-37zM-13 46l316 604h-81l10 44h309l-10 -44h-74l67 -604h76l-11 -46h-227l11 46h89l-23 220h-279l-115 -220h84l-11 -46h-232l11 46h90z" />
    <glyph glyph-name="B" unicode="B" horiz-adv-x="565" 
d="M42 46l145 604h-72l10 44h213q91 0 145.5 -41t54.5 -115q0 -61 -37 -108t-102 -65q92 -49 92 -152q0 -57 -24.5 -101.5t-61.5 -70.5q-29 -20 -72 -29.5t-71 -10.5t-87 -1h-216l11 46h72zM185 396h136q70 0 116 38t46 101q0 115 -156 115h-81zM101 46h100q102 0 141 16
q40 17 66 58t26 94q0 37 -15 64t-34 40.5t-46.5 21t-43 9t-32.5 1.5h-89z" />
    <glyph glyph-name="C" unicode="C" horiz-adv-x="718" 
d="M604 187l36 -31q-58 -75 -141 -122.5t-179 -47.5q-126 0 -205 77q-86 83 -86 212q0 154 111 281q131 150 313 150q157 0 230 -104l22 92h53l-46 -192h-41q-8 37 -24.5 65t-38.5 44t-42.5 27t-44 15t-35.5 5t-25 1q-160 0 -275 -131q-99 -113 -99 -251q0 -106 65.5 -171
t172.5 -65q80 0 153 42t126 104z" />
    <glyph glyph-name="D" unicode="D" horiz-adv-x="720" 
d="M100 46h112q88 0 149 10.5t113 42.5q73 45 112 126t39 176q0 50 -12.5 90t-31.5 65.5t-47 44t-52.5 28t-54.5 14.5t-46.5 6t-35.5 1h-100zM41 46l145 604h-72l10 44h244q148 0 230 -78.5t82 -220.5q0 -88 -31.5 -165t-90.5 -132q-59 -56 -135.5 -77t-185.5 -21h-279
l11 46h72z" />
    <glyph glyph-name="E" unicode="E" horiz-adv-x="618" 
d="M43 46l145 604h-72l10 44h490l-51 -213h-50l41 169h-309l-61 -254h252l-11 -46h-252l-73 -304h317l39 167h50l-51 -213h-497l11 46h72z" />
    <glyph glyph-name="F" unicode="F" horiz-adv-x="553" 
d="M44 46l145 604h-72l11 44h469l-51 -213h-50l41 169h-289l-61 -254h232l-11 -46h-232l-73 -304h79l-11 -46h-210l11 46h72z" />
    <glyph glyph-name="G" unicode="G" horiz-adv-x="762" 
d="M451 264l12 51h249q-28 -152 -132 -241t-243 -89t-226 87q-80 80 -80 206q0 155 111 279q134 149 333 149q164 0 235 -104l23 93h52l-46 -192h-41q-11 44 -34.5 75.5t-47 46.5t-54 23.5t-46.5 10t-34 1.5q-182 0 -295 -130q-17 -19 -35.5 -45.5t-40.5 -85.5t-22 -118
q0 -109 68.5 -175.5t179.5 -66.5q106 0 186.5 60.5t112.5 164.5h-185z" />
    <glyph glyph-name="H" unicode="H" horiz-adv-x="706" 
d="M45 46l145 604h-71l10 44h202l-10 -44h-71l-62 -254h353l61 254h-71l10 44h203l-11 -44h-71l-145 -604h71l-11 -46h-202l11 46h71l73 304h-353l-72 -304h71l-11 -46h-202l11 46h71z" />
    <glyph glyph-name="I" unicode="I" horiz-adv-x="302" 
d="M49 46l145 604h-71l10 44h203l-11 -44h-71l-145 -604h72l-12 -46h-202l11 46h71z" />
    <glyph glyph-name="J" unicode="J" horiz-adv-x="297" 
d="M191 650h-71l11 44h203l-11 -44h-71l-142 -594q-10 -41 -19 -70.5t-30 -71.5t-46.5 -68t-68.5 -44.5t-96 -16.5l-28 1l13 54h13q83 0 127.5 49t74.5 173z" />
    <glyph glyph-name="K" unicode="K" horiz-adv-x="620" 
d="M181 365l350 285h-79l10 44h218l-11 -44h-59l-356 -288l248 -316h63l-11 -46h-203l11 46h65zM45 46l145 604h-71l10 44h202l-10 -44h-71l-145 -604h71l-11 -46h-202l11 46h71z" />
    <glyph glyph-name="L" unicode="L" horiz-adv-x="572" 
d="M44 46l145 604h-71l10 44h211l-10 -44h-81l-145 -604h295l58 241h50l-69 -287h-475l11 46h71z" />
    <glyph glyph-name="M" unicode="M" horiz-adv-x="868" 
d="M41 46l144 604h-66l10 44h156l96 -571l364 571h168l-10 -44h-72l-145 -604h72l-11 -46h-203l11 46h72l145 604l-425 -664l-112 664l-145 -604h67l-11 -46h-183l11 46h67z" />
    <glyph glyph-name="N" unicode="N" horiz-adv-x="722" 
d="M42 46l145 602h-72l10 46h145l229 -608l135 562h-72l11 46h196l-12 -46h-71l-155 -648h-65l-232 628l-140 -582h72l-12 -46h-195l11 46h72z" />
    <glyph glyph-name="O" unicode="O" horiz-adv-x="752" 
d="M29 272q0 158 107 285q128 150 300 150q128 0 207 -77.5t79 -204.5q0 -165 -110 -294q-63 -74 -142.5 -109.5t-158.5 -35.5q-122 0 -199 76q-83 81 -83 210zM429 651q-139 0 -245 -123q-98 -113 -98 -249q0 -105 64 -170t170 -65q95 0 178 59q84 59 125.5 148t41.5 174
q0 101 -67 163.5t-169 62.5z" />
    <glyph glyph-name="P" unicode="P" horiz-adv-x="551" 
d="M173 340h128q83 0 131 44.5t48 123.5q0 65 -43.5 103.5t-120.5 38.5h-70zM42 46l145 604h-72l10 44h197q100 0 157.5 -48.5t57.5 -132.5q0 -98 -65.5 -157.5t-174.5 -59.5h-136l-60 -250h77l-12 -46h-207l11 46h72z" />
    <glyph glyph-name="Q" unicode="Q" horiz-adv-x="752" 
d="M429 651q-139 0 -245 -123q-98 -113 -98 -250q0 -105 63.5 -169.5t168.5 -64.5q95 0 180 59q84 59 125.5 148t41.5 174q0 101 -67 163.5t-169 62.5zM572 -79l-28 -56h-8q-70 0 -116 24l-51 26l-15 7.5t-15.5 8t-14 7t-15.5 6.5t-14.5 4.5t-16.5 3.5t-16 1q-51 0 -109 -40
l-20 40q43 38 103 46q-98 23 -152.5 97.5t-54.5 183.5q0 150 107 277q127 150 299 150q130 0 208.5 -77.5t78.5 -202.5q0 -102 -48 -200t-129 -159q-89 -67 -213 -74q29 -11 77 -37l32 -17q36 -19 119 -19h12z" />
    <glyph glyph-name="R" unicode="R" horiz-adv-x="560" 
d="M42 46l145 604h-72l10 44h216q94 0 146.5 -41.5t52.5 -115.5q0 -69 -46 -120.5t-123 -64.5l64 -306h82l-11 -46h-120l-76 352h-136l-72 -306h71l-11 -46h-203l11 46h72zM185 396h136q70 0 116 38t46 101q0 115 -156 115h-80z" />
    <glyph glyph-name="S" unicode="S" horiz-adv-x="537" 
d="M0 0l45 192h48l-24 -99q89 -60 164 -60q72 0 115 46.5t43 104.5q0 11 -1.5 20.5t-6 19t-8 16t-11.5 15t-12 13.5t-15 13.5l-15 11.5t-17 12l-16 11l-71 51q-24 18 -38.5 30.5t-32 32t-26 43.5t-8.5 53q0 79 55.5 130t134.5 51q92 0 178 -68l13 55h48l-46 -189h-47l20 84
q-37 32 -83 52.5t-86 20.5q-54 0 -92 -37.5t-38 -92.5q0 -23 6.5 -41.5t24 -35t25.5 -23t32 -23.5l93 -66q98 -69 98 -157q0 -86 -63.5 -142.5t-154.5 -56.5q-86 0 -173 56l-11 -43h-47z" />
    <glyph glyph-name="T" unicode="T" horiz-adv-x="579" 
d="M181 46l145 604h-176l-50 -209h-48l61 253h508l-61 -253h-48l51 209h-177l-145 -604h72l-11 -46h-203l11 46h71z" />
    <glyph glyph-name="U" unicode="U" horiz-adv-x="674" 
d="M180 650h-72l11 45h202l-10 -45h-72l-98 -413q-12 -50 -12 -75q0 -50 34.5 -84t104.5 -34q45 0 81 14t58 34t39 51.5t25 56t16 56.5l93 394h-71l11 45h197l-10 -45h-72l-97 -407q-9 -39 -19 -68.5t-31.5 -67.5t-49 -62.5t-73.5 -41.5t-103 -17q-45 0 -80.5 12t-56 29.5
t-34 41.5t-18 44.5t-4.5 41.5q0 35 14 89z" />
    <glyph glyph-name="V" unicode="V" horiz-adv-x="595" 
d="M137 -9l-40 659h-72l10 44h203l-10 -44h-71l34 -573l383 573h-95l10 44h226l-10 -44h-68l-449 -659h-51z" />
    <glyph glyph-name="W" unicode="W" horiz-adv-x="882" 
d="M103 -9l11 659h-63l11 44h202l-10 -44h-82l-10 -567l307 567h-83l10 44h251l-11 -44h-76l-8 -567l307 567h-64l11 44h188l-11 -44h-64l-372 -659h-53l11 633l-346 -633h-56z" />
    <glyph glyph-name="X" unicode="X" horiz-adv-x="528" 
d="M-36 46l278 310l-113 294h-73l10 44h203l-11 -44h-67l95 -246l222 246h-76l10 44h203l-11 -44h-64l-266 -295l120 -309h72l-11 -46h-203l11 46h70l-102 261l-235 -261h73l-12 -46h-202l11 46h68z" />
    <glyph glyph-name="Y" unicode="Y" horiz-adv-x="521" 
d="M138 46l63 268l-123 336h-71l11 44h204l-11 -44h-71l106 -288l255 288h-95l10 44h226l-10 -44h-68l-300 -336l-64 -268h76l-11 -46h-210l11 46h72z" />
    <glyph glyph-name="Z" unicode="Z" horiz-adv-x="562" 
d="M-38 0l6 46l526 604h-319l-39 -163h-48l50 207h436l-6 -44l-524 -604h346l44 183h47l-55 -229h-464z" />
    <glyph glyph-name="bracketleft" unicode="[" horiz-adv-x="315" 
d="M62 -114h149l-12 -46h-200l205 854h208l-12 -46h-155z" />
    <glyph glyph-name="backslash" unicode="\" horiz-adv-x="278" 
d="M204 -93h-46l-88 799h46z" />
    <glyph glyph-name="bracketright" unicode="]" horiz-adv-x="315" 
d="M209 648h-148l12 46h200l-205 -854h-208l12 46h155z" />
    <glyph glyph-name="asciicircum" unicode="^" horiz-adv-x="1000" 
d="M528 712l264 -272h-61l-231 229l-232 -229h-61l263 272h58z" />
    <glyph glyph-name="underscore" unicode="_" 
d="M500 -197v-39h-500v39h500z" />
    <glyph glyph-name="grave" unicode="`" 
d="M337 556h-43l-138 170h73z" />
    <glyph glyph-name="a" unicode="a" horiz-adv-x="508" 
d="M311 123l20 86q-77 34 -146 34q-67 0 -105 -34.5t-38 -80.5q0 -40 28.5 -66.5t68.5 -26.5q36 0 85 27t87 61zM419 47l-11 -47h-126l14 60q-92 -73 -170 -73q-60 0 -99 39t-39 96q0 76 57 121.5t139 45.5q63 0 158 -35l16 65q9 33 9 51q0 35 -28 60t-80 25q-84 0 -147 -85
l-42 23q75 108 192 108q76 0 117.5 -37t41.5 -87q0 -27 -9 -63l-64 -267h71z" />
    <glyph glyph-name="b" unicode="b" horiz-adv-x="571" 
d="M60 0h-126l11 46h71l144 602h-78l11 46h134l-62 -258q74 66 154 66q34 0 65.5 -12t59.5 -36.5t44.5 -66.5t16.5 -96q0 -97 -54 -185q-24 -39 -54.5 -65.5t-60.5 -37t-49 -14t-36 -3.5q-94 0 -173 88zM149 371l-58 -244q70 -92 157 -92q68 0 126 55q76 74 76 196
q0 86 -40.5 127t-98.5 41q-83 0 -162 -83z" />
    <glyph glyph-name="c" unicode="c" 
d="M412 96q-37 -47 -92 -79t-118 -32q-88 0 -141.5 56.5t-53.5 150.5q0 97 55 180q38 59 93 94t117 35q98 0 150 -86l18 73h48l-37 -153h-48q-10 56 -47 88t-88 32q-65 0 -123 -58q-43 -43 -64 -101t-21 -109q0 -75 41.5 -115.5t100.5 -40.5q48 0 94.5 28t80.5 69z" />
    <glyph glyph-name="d" unicode="d" horiz-adv-x="569" 
d="M402 46h72l-11 -46h-127l13 54q-68 -66 -153 -66q-34 0 -65.5 12t-59.5 36.5t-44.5 66.5t-16.5 96q0 95 53 181q41 67 95 93.5t104 26.5q98 0 173 -90l57 238h-72l11 46h127zM365 119l57 239q-69 94 -156 94q-84 0 -142.5 -72.5t-58.5 -174.5q0 -86 40.5 -127.5
t98.5 -41.5q84 0 161 83z" />
    <glyph glyph-name="e" unicode="e" horiz-adv-x="532" 
d="M422 97q-80 -112 -211 -112q-93 0 -148.5 56t-55.5 151q0 93 54 178q35 55 90 93t127 38q88 0 141 -58.5t53 -156.5q0 -29 -4 -55h-403q-4 -32 -4 -46q0 -63 38.5 -108.5t112.5 -45.5q101 0 166 92zM75 278h343q7 75 -29 123q-39 53 -112 53q-85 0 -146 -76
q-34 -42 -56 -100z" />
    <glyph glyph-name="f" unicode="f" horiz-adv-x="259" 
d="M18 46l95 396h-78l11 46h78l17 69q38 149 145 149q34 0 75 -18l-20 -40q-25 10 -46 10q-44 0 -66 -29.5t-34 -79.5l-15 -61h74l-11 -46h-74l-95 -396h72l-11 -46h-200l11 46h72z" />
    <glyph glyph-name="g" unicode="g" horiz-adv-x="595" 
d="M-31 -94l30 37q73 -71 158 -71q64 0 118 49.5t77 150.5q-71 -63 -156 -63q-82 0 -133.5 56t-51.5 146q0 94 52 174q76 115 199 115q108 0 172 -86l19 74h126l-11 -46h-72l-73 -304q-37 -154 -78 -211q-14 -20 -32.5 -38.5t-64 -41t-97.5 -22.5q-101 0 -182 81zM367 134
l55 229q-65 91 -156 91q-70 0 -125 -54q-75 -75 -75 -183q0 -75 37.5 -118.5t101.5 -43.5q83 0 162 79z" />
    <glyph glyph-name="h" unicode="h" horiz-adv-x="516" 
d="M160 432q83 67 162 67q53 0 83.5 -29t30.5 -78q0 -25 -10 -66l-68 -280h73l-11 -46h-198l12 46h71l70 287q8 29 8 56q0 28 -18 47.5t-55 19.5q-65 0 -163 -81l-79 -329h71l-11 -46h-198l11 46h72l143 602h-71l11 46h126z" />
    <glyph glyph-name="i" unicode="i" horiz-adv-x="241" 
d="M-61 0l11 46h72l94 396h-71l11 46h127l-105 -442h71l-11 -46h-199zM154 668q0 16 10.5 27t26.5 11t27.5 -10.5t11.5 -27.5q0 -16 -11 -27t-28 -11q-16 0 -26.5 11t-10.5 27z" />
    <glyph glyph-name="j" unicode="j" horiz-adv-x="243" 
d="M57 488h128l-106 -442q-18 -75 -37.5 -120.5t-44 -66.5t-45 -26.5t-55.5 -6.5h-14q-5 0 -36 4l12 47l31 -2q26 -2 45.5 6.5t32 21.5t23.5 39t17 46.5t15 57.5l95 396h-72zM155 668q0 17 11 27.5t27 10.5q17 0 27.5 -11t10.5 -27t-11 -27t-27 -11t-27 11t-11 27z" />
    <glyph glyph-name="k" unicode="k" horiz-adv-x="498" 
d="M12 46l144 602h-72l11 46h127l-155 -648h72l-11 -46h-198l11 46h71zM116 255l251 187h-83l10 46h234l-11 -46h-75l-258 -191l154 -205h93l-11 -46h-117z" />
    <glyph glyph-name="l" unicode="l" horiz-adv-x="230" 
d="M158 648h-72l11 46h128l-156 -648h72l-11 -46h-199l11 46h71z" />
    <glyph glyph-name="m" unicode="m" horiz-adv-x="803" 
d="M354 46h72l-11 -46h-197l11 46h72l68 287q7 31 7 57q0 22 -8.5 36.5t-21.5 20.5t-22 7.5t-18 1.5q-61 0 -155 -81l-79 -329h72l-11 -46h-198l11 46h73l94 396h-72l11 46h126l-14 -58q78 69 156 69q11 0 22 -2t30.5 -8.5t34 -24t20.5 -43.5q97 78 173 78q29 0 51 -9.5
t32.5 -22t17 -29.5t7.5 -27t1 -20q0 -30 -8 -65l-67 -280h71l-11 -46h-196l11 46h71l69 287q7 31 7 57q0 22 -8.5 36.5t-21.5 20.5t-22 7.5t-18 1.5q-61 0 -155 -81z" />
    <glyph glyph-name="n" unicode="n" horiz-adv-x="523" 
d="M17 46l95 396h-72l11 46h127l-17 -58q90 69 166 69q58 0 85.5 -31t27.5 -76q0 -25 -10 -66l-67 -280h73l-11 -46h-198l11 46h72l69 287q9 36 9 56q0 28 -18.5 47.5t-55.5 19.5q-68 0 -163 -81l-79 -329h72l-11 -46h-198l11 46h71z" />
    <glyph glyph-name="o" unicode="o" horiz-adv-x="527" 
d="M2 192q0 92 56 180q42 66 99.5 97.5t116.5 31.5q77 0 135 -52t58 -154q0 -90 -52 -174q-84 -136 -219 -136q-87 0 -140.5 56.5t-53.5 150.5zM271 454q-68 0 -123 -52q-42 -40 -67.5 -100t-25.5 -115q0 -67 38.5 -111.5t103.5 -44.5q74 0 135 65q37 41 59.5 96t22.5 109
q0 69 -39.5 111t-103.5 42z" />
    <glyph glyph-name="p" unicode="p" horiz-adv-x="572" 
d="M-22 -116l134 558h-71l11 46h126l-12 -52q73 66 152 66q76 0 131.5 -53t55.5 -158q0 -101 -52 -181q-32 -50 -82.5 -85t-117.5 -35q-103 0 -173 90l-47 -196h72l-11 -46h-198l11 46h71zM150 371l-58 -239q70 -94 159 -94q69 0 125 56q74 74 74 191q0 86 -40.5 127.5
t-99.5 41.5q-42 0 -84.5 -24t-75.5 -59z" />
    <glyph glyph-name="q" unicode="q" horiz-adv-x="569" 
d="M349 54q-71 -66 -154 -66q-75 0 -130 53t-55 158q0 99 52 181q24 39 55 65.5t60.5 37t48.5 14t36 3.5q100 0 173 -90l19 78h126l-11 -46h-72l-134 -558h72l-11 -46h-198l11 46h72zM365 119l57 239q-68 94 -157 94q-85 0 -142.5 -72.5t-57.5 -174.5q0 -86 40.5 -127.5
t98.5 -41.5q84 0 161 83z" />
    <glyph glyph-name="r" unicode="r" horiz-adv-x="394" 
d="M422 486l-14 -51q-237 20 -306 -282l-24 -107h88l-12 -46h-215l11 46h72l94 396h-71l11 46h125l-33 -135q89 136 244 135h12h6q1 0 2 -0.5t4 -1t6 -0.5z" />
    <glyph glyph-name="s" unicode="s" horiz-adv-x="454" 
d="M-31 0l34 139h47q7 -50 41.5 -77.5t85.5 -27.5q57 0 89 31t32 69q0 23 -13 40.5t-27 26.5t-44 24l-65 33q-44 22 -67.5 47.5t-23.5 66.5q0 56 47 93t115 37q88 0 145 -66l12 52h48l-33 -139h-48q-5 49 -39 77.5t-85 28.5q-50 0 -78.5 -24.5t-28.5 -57.5q0 -19 12.5 -34
t22 -20.5t33.5 -17.5l69 -35q54 -27 78 -56t24 -71q0 -59 -47.5 -106.5t-131.5 -47.5q-102 0 -145 69l-13 -54h-46z" />
    <glyph glyph-name="t" unicode="t" horiz-adv-x="269" 
d="M106 442h-69l11 46h70l32 133l68 50l-44 -183h84l-11 -46h-84l-79 -329q-6 -27 -6 -36q0 -18 12.5 -31t37.5 -13t77 13l-11 -46q-44 -14 -78 -14q-48 0 -71 24t-23 61q0 17 13 72z" />
    <glyph glyph-name="u" unicode="u" horiz-adv-x="523" 
d="M305 56q-87 -70 -165 -70q-53 0 -83 29.5t-30 83.5q0 30 8 60l69 283h-72l11 46h127l-81 -335q-9 -36 -9 -55q0 -36 20 -52.5t52 -16.5q37 0 83 26t81 56l80 331h-72l11 46h127l-106 -442h72l-12 -46h-126z" />
    <glyph glyph-name="v" unicode="v" horiz-adv-x="456" 
d="M78 0l-20 442h-62l11 46h186l-11 -46h-68l16 -389l249 389h-76l11 46h178l-11 -46h-46l-292 -442h-65z" />
    <glyph glyph-name="w" unicode="w" horiz-adv-x="742" 
d="M141 0h-65l-13 442h-63l11 46h187l-11 -46h-68l9 -388l227 388h-63l11 46h205l-11 -46h-72l13 -388l223 388h-77l11 46h177l-11 -46h-48l-262 -442h-65l-13 397z" />
    <glyph glyph-name="x" unicode="x" horiz-adv-x="465" 
d="M-100 0l11 46h58l207 208l-96 188h-56l11 46h179l-11 -46h-64l77 -148l148 148h-64l11 46h183l-12 -46h-54l-191 -192l105 -204h50l-11 -46h-172l11 46h62l-85 164l-163 -164h77l-11 -46h-200z" />
    <glyph glyph-name="y" unicode="y" horiz-adv-x="456" 
d="M79 -14l-21 456h-63l11 46h187l-11 -46h-68l15 -387l249 387h-75l11 46h178l-11 -46h-45l-400 -604h-145l11 46h107z" />
    <glyph glyph-name="z" unicode="z" horiz-adv-x="461" 
d="M-30 0l11 71l374 371h-215l-24 -101h-48l35 147h325l-8 -56l-389 -386h248l26 108h48l-37 -154h-346z" />
    <glyph glyph-name="braceleft" unicode="{" 
d="M414 678h-18q-69 0 -90.5 -27t-21.5 -102v-118q0 -79 -19 -117.5t-76 -54.5q58 -17 76.5 -55t18.5 -117v-118q0 -75 21 -101.5t90 -26.5h19v-43h-21q-97 0 -128 38.5t-31 144.5v117q0 76 -28 108t-98 32q-3 0 -10.5 -0.5t-11.5 -0.5v44q9 -1 24 -1q69 0 96.5 32t27.5 108
v117q0 106 31 145t128 39h21v-43z" />
    <glyph glyph-name="bar" unicode="|" 
d="M272 764v-1000h-44v1000h44z" />
    <glyph glyph-name="braceright" unicode="}" 
d="M266 537v-117q0 -76 28 -108t98 -32q3 0 10.5 0.5t11.5 0.5v-44q-4 0 -11.5 0.5t-10.5 0.5q-70 0 -98 -32t-28 -108v-117q0 -106 -31 -144.5t-128 -38.5h-21v43h19q69 0 90 26.5t21 101.5v118q0 79 19 117t77 55q-58 16 -77 54.5t-19 117.5v118q0 75 -21.5 102t-90.5 27
h-18v43h21q97 0 128 -39t31 -145z" />
    <glyph glyph-name="asciitilde" unicode="~" horiz-adv-x="833" 
d="M747 316q-103 -72 -189 -72q-48 0 -141 34q-4 1 -20 7t-21 7.5t-18.5 6t-21 6t-19 4t-21.5 3.5t-20 1q-78 0 -189 -78v45q103 72 189 72q45 0 141 -34q97 -35 141 -35q78 0 189 78v-45z" />
    <glyph glyph-name="sterling" unicode="&#xa3;" horiz-adv-x="479" 
d="M160 313h-119l11 46h106q-4 82 -4 97q0 117 51.5 183.5t133.5 66.5q60 0 101 -40t41 -100q0 -17 -7 -50h-48q5 30 5 43q0 46 -24.5 72t-67.5 26q-59 0 -95 -47.5t-36 -129.5q0 -58 6 -121h133l-11 -46h-120v-14q0 -103 -43 -203q43 -60 91 -60q39 0 68.5 29t56.5 90h47
q-30 -82 -75.5 -125.5t-98.5 -43.5q-62 0 -113 63q-47 -62 -98 -62q-35 0 -57 22t-22 57q0 44 26 73t65 29q43 0 76 -37q23 56 23 136q0 14 -2 46zM117 86q-32 34 -56 34q-19 0 -30.5 -13t-11.5 -34q0 -38 37 -38q32 0 61 51z" />
    <glyph glyph-name="currency" unicode="&#xa4;" horiz-adv-x="606" 
d="M175 588q58 46 128 46q71 0 129 -46l100 101l29 -29l-101 -100q45 -57 45 -128t-45 -128l101 -100l-29 -29l-100 101q-57 -45 -129 -45q-71 0 -128 45l-101 -101l-28 29l101 100q-45 57 -45 128t45 128l-101 100l28 29zM466 433q0 67 -47.5 114t-114.5 47t-114.5 -47.5
t-47.5 -113.5q0 -67 47.5 -114.5t114.5 -47.5t114.5 47.5t47.5 114.5z" />
    <glyph glyph-name="section" unicode="&#xa7;" horiz-adv-x="543" 
d="M-1 -148l38 157h43l-28 -115l126 1q35 0 57 21.5t22 55.5q0 28 -26 71l-143 229q-37 60 -37 103q0 50 36.5 84.5t89.5 34.5q16 0 34 -3q-26 42 -26 88q0 55 37 85t107 30h147l-34 -140h-43l23 98h-93q-93 0 -93 -66q0 -35 29 -81l138 -216q37 -58 37 -103
q0 -51 -37.5 -86.5t-90.5 -35.5q-16 0 -38 8q37 -62 37 -100q0 -55 -35 -87.5t-95 -32.5h-182zM357 264l-78 126q-24 39 -43.5 55.5t-48.5 16.5q-37 0 -63 -24.5t-26 -59.5q0 -27 33 -81l79 -125q24 -38 44 -55.5t48 -17.5q37 0 63 25t26 60q0 6 -1 12t-3 12.5t-3.5 10.5
t-6 12l-6 10.5t-7.5 11.5t-7 11z" />
    <glyph glyph-name="dieresis" unicode="&#xa8;" 
d="M160 672q0 14 11.5 26t26.5 12q14 0 26.5 -10.5t12.5 -27.5q0 -16 -11.5 -27.5t-27.5 -11.5q-14 0 -26 11.5t-12 27.5zM342 672q0 14 12 26t27 12t26 -11.5t11 -26.5t-10.5 -27t-26.5 -12q-15 0 -27 11.5t-12 27.5z" />
    <glyph glyph-name="copyright" unicode="&#xa9;" horiz-adv-x="833" 
d="M606 303q-19 -68 -69 -110t-123 -42q-90 0 -145 59q-54 57 -54 152q0 94 53 150q26 29 66 45t80 16q76 0 124 -55v48h50v-144h-47q-11 47 -43.5 74.5t-84.5 27.5q-62 0 -103 -43t-41 -117q0 -75 42 -119q44 -46 103 -46q62 0 106 48q32 37 41 77zM416 709
q150 0 253.5 -104.5t103.5 -252.5q0 -149 -103 -250q-107 -107 -254 -107q-146 0 -251 106t-105 251q0 146 106 254q103 103 250 103zM738 352q0 133 -93.5 227.5t-228.5 94.5q-132 0 -225 -93q-96 -96 -96 -229q0 -131 95 -226t226 -95q133 0 229 96q93 93 93 225z" />
    <glyph glyph-name="guillemotleft" unicode="&#xab;" horiz-adv-x="442" 
d="M341 94h-63l-100 153l130 152h62l-129 -152zM195 94h-62l-101 153l130 152h63l-129 -152z" />
    <glyph glyph-name="logicalnot" unicode="&#xac;" horiz-adv-x="833" 
d="M709 418v-245h-39v206h-546v39h585z" />
    <glyph glyph-name="registered" unicode="&#xae;" horiz-adv-x="748" 
d="M237 529v42h171q60 0 95.5 -27t35.5 -82q0 -39 -22.5 -64.5t-59.5 -34.5l73 -162h43v-44h-76l-90 198h-70v-154h49v-44h-149v44h49v328h-49zM337 397h61q92 0 92 65q0 67 -87 67h-66v-132zM388 709q150 0 253.5 -104.5t103.5 -252.5q0 -149 -103 -250
q-107 -107 -254 -107q-146 0 -251 106t-105 251q0 146 106 254q103 103 250 103zM710 352q0 133 -93.5 227.5t-228.5 94.5q-132 0 -225 -93q-96 -96 -96 -229q0 -131 95 -226t226 -95q133 0 229 96q93 93 93 225z" />
    <glyph glyph-name="degree" unicode="&#xb0;" horiz-adv-x="329" 
d="M165 708q55 0 94 -39.5t39 -94.5t-39 -94t-95 -39t-94.5 38.5t-38.5 94.5t39 95t95 39zM269 574q0 43 -30.5 73.5t-73.5 30.5t-73.5 -30t-30.5 -74q0 -43 30.5 -73.5t73.5 -30.5t73.5 30.5t30.5 73.5z" />
    <glyph glyph-name="plusminus" unicode="&#xb1;" horiz-adv-x="833" 
d="M436 567v-173h273v-39h-273v-172h-39v172h-273v39h273v173h39zM709 69v-39h-585v39h585z" />
    <glyph glyph-name="acute" unicode="&#xb4;" 
d="M262 556h-45l119 170h72z" />
    <glyph glyph-name="mu" unicode="&#xb5;" horiz-adv-x="534" 
d="M159 519l-60 -288q-8 -40 -8 -69q0 -61 29 -93.5t85 -32.5q61 0 106.5 52.5t67.5 153.5l61 277h59l-81 -384q-12 -57 -12 -66q0 -31 33 -31q8 0 19 1l-9 -47q-28 -6 -37 -6q-65 0 -65 62q0 6 2 22q-44 -84 -152 -84q-48 0 -83 22t-51 62l-58 -277h-59l154 726h59z" />
    <glyph glyph-name="mu" unicode="&#x3bc;" horiz-adv-x="534" 
d="M159 519l-60 -288q-8 -40 -8 -69q0 -61 29 -93.5t85 -32.5q61 0 106.5 52.5t67.5 153.5l61 277h59l-81 -384q-12 -57 -12 -66q0 -31 33 -31q8 0 19 1l-9 -47q-28 -6 -37 -6q-65 0 -65 62q0 6 2 22q-44 -84 -152 -84q-48 0 -83 22t-51 62l-58 -277h-59l154 726h59z" />
    <glyph glyph-name="paragraph" unicode="&#xb6;" 
d="M455 691h-63v-691h-34v691h-94v-691h-34v382q-86 4 -136 50.5t-50 119.5q0 76 52.5 123t140.5 47h218v-31z" />
    <glyph glyph-name="guillemotright" unicode="&#xbb;" horiz-adv-x="442" 
d="M201 399h63l100 -152l-130 -153h-62l128 153zM56 399h62l101 -152l-130 -153h-63l129 153z" />
    <glyph glyph-name="divide" unicode="&#xf7;" horiz-adv-x="833" 
d="M417 515q20 0 34 -14t14 -34t-14 -34.5t-34 -14.5t-34 14.5t-14 34.5t14 34t34 14zM709 318v-39h-585v39h585zM417 179q20 0 34 -14.5t14 -34.5t-14 -34t-34 -14t-34 13.5t-14 34.5q0 20 14.5 34.5t33.5 14.5z" />
    <glyph glyph-name="dotlessi" unicode="&#x131;" horiz-adv-x="241" 
d="M-61 0l11 46h72l94 396h-71l11 46h127l-105 -442h71l-11 -46h-199z" />
    <glyph glyph-name="florin" unicode="&#x192;" horiz-adv-x="479" 
d="M229 409h-78l11 47h78l25 101q37 149 146 149q38 0 74 -18l-19 -40q-24 10 -46 10q-40 0 -63.5 -26t-37.5 -83l-23 -93h67l-11 -47h-67l-85 -363q-28 -121 -66 -170.5t-116 -49.5q-26 0 -50 4l11 47q22 -2 31 -2q57 0 84 37.5t50 133.5z" />
    <glyph glyph-name="dotaccent" unicode="&#x2d9;" 
d="M246 632q0 18 13.5 31.5t31.5 13.5q19 0 32 -13.5t13 -31.5q0 -21 -13.5 -33.5t-31.5 -12.5t-31.5 13.5t-13.5 32.5z" />
    <glyph glyph-name="Delta" unicode="&#x394;" horiz-adv-x="668" 
d="M640 0h-612l268 700h76zM334 633l-220 -582h440z" />
    <glyph glyph-name="Delta" unicode="&#x2206;" horiz-adv-x="668" 
d="M640 0h-612l268 700h76zM334 633l-220 -582h440z" />
    <glyph glyph-name="afii10023" unicode="&#x401;" horiz-adv-x="671" 
d="M-40 0l12 51h86l144 597h-86l11 46h542l-46 -192h-46l35 146h-350l-63 -259h274l-11 -46h-274l-70 -292h350l39 162h46l-51 -213h-542zM283 809q0 16 13 29t30 13q15 0 29 -11.5t14 -30.5t-12.5 -31.5t-30.5 -12.5q-17 0 -30 13t-13 31zM470 809q0 16 13 29t30 13
t29.5 -12.5t12.5 -29.5t-11.5 -30.5t-30.5 -13.5q-17 0 -30 13t-13 31z" />
    <glyph glyph-name="afii10051" unicode="&#x402;" horiz-adv-x="736" 
d="M155 648l-42 -175h-46l53 221h528l-53 -221h-46l42 175h-187l-73 -290q96 17 156 17q171 0 171 -137q0 -50 -19.5 -100t-52.5 -84q-66 -66 -161 -68l12 52q50 0 87 29q33 25 54 70.5t21 89.5q0 51 -32 76q-28 22 -99 22q-72 0 -147 -16l-62 -263h105l-11 -46h-269l11 46
h104l145 602h-189z" />
    <glyph glyph-name="afii10052" unicode="&#x403;" horiz-adv-x="577" 
d="M572 517h-50l32 131h-292l-144 -597h81l-12 -51h-222l12 51h81l144 597h-81l11 46h483zM351 755h-45l119 170h72z" />
    <glyph glyph-name="afii10053" unicode="&#x404;" horiz-adv-x="745" 
d="M674 228q-54 -105 -152 -173.5t-229 -68.5q-144 0 -214 100q-50 73 -50 175q0 89 43 182t124 161q121 102 268 102q160 0 215 -125l28 113h52l-54 -222h-52q0 82 -52.5 133t-141.5 51q-125 0 -228 -87q-94 -80 -122 -192h345l-13 -53h-345q-7 -37 -7 -68q0 -74 37 -128
q65 -92 181 -92q101 0 187.5 62t136.5 154z" />
    <glyph glyph-name="afii10054" unicode="&#x405;" horiz-adv-x="537" 
d="M0 0l45 192h48l-24 -99q89 -60 164 -60q72 0 115 46.5t43 104.5q0 11 -1.5 20.5t-6 19t-8 16t-11.5 15t-12 13.5t-15 13.5l-15 11.5t-17 12l-16 11l-71 51q-24 18 -38.5 30.5t-32 32t-26 43.5t-8.5 53q0 79 55.5 130t134.5 51q92 0 178 -68l13 55h48l-46 -189h-47l20 84
q-37 32 -83 52.5t-86 20.5q-54 0 -92 -37.5t-38 -92.5q0 -23 6.5 -41.5t24 -35t25.5 -23t32 -23.5l93 -66q98 -69 98 -157q0 -86 -63.5 -142.5t-154.5 -56.5q-86 0 -173 56l-11 -43h-47z" />
    <glyph glyph-name="afii10055" unicode="&#x406;" horiz-adv-x="302" 
d="M49 46l145 604h-71l10 44h203l-11 -44h-71l-145 -604h72l-12 -46h-202l11 46h71z" />
    <glyph glyph-name="afii10056" unicode="&#x407;" horiz-adv-x="302" 
d="M49 46l145 604h-71l10 44h203l-11 -44h-71l-145 -604h72l-12 -46h-202l11 46h71zM108 829q0 16 13 29t30 13q15 0 29 -11.5t14 -30.5t-13 -31.5t-30 -12.5t-30 13t-13 31zM295 829q0 16 13 29t30 13t29.5 -12.5t12.5 -29.5t-11.5 -30.5t-30.5 -13.5q-17 0 -30 13t-13 31z
" />
    <glyph glyph-name="afii10057" unicode="&#x408;" horiz-adv-x="297" 
d="M191 650h-71l11 44h203l-11 -44h-71l-142 -594q-11 -48 -22.5 -82.5t-34 -75t-51.5 -64.5t-75 -38.5t-105 -9.5l13 54q44 -1 77.5 10.5t54.5 29t37.5 49.5t25.5 60.5t20 72.5z" />
    <glyph glyph-name="afii10058" unicode="&#x409;" horiz-adv-x="943" 
d="M733 648h-81l-62 -257h139q100 0 144 -51q34 -39 34 -99q0 -56 -24 -106t-65 -81q-71 -54 -184 -54h-279l12 51h81l144 597h-265l-41 -167q-39 -158 -70 -246q-44 -127 -110 -185q-60 -53 -140 -53q-24 0 -39 3l11 50q15 -3 30 -3q70 0 121 57q44 51 83 171
q32 100 64 228l35 145h-87l11 46h549zM578 340l-70 -289h117q93 0 145 34q73 49 73 142q0 56 -34 85q-33 28 -115 28h-116z" />
    <glyph glyph-name="afii10059" unicode="&#x40a;" horiz-adv-x="967" 
d="M753 648h-81l-62 -257h139q100 0 144 -51q34 -39 34 -99q0 -56 -24 -106t-65 -81q-71 -54 -184 -54h-277l12 51h79l72 297h-345l-72 -297h79l-12 -51h-225l12 51h86l144 597h-86l11 46h225l-11 -46h-79l-61 -251h345l61 251h-79l11 46h220zM598 340l-70 -289h117
q93 0 145 34q73 49 73 142q0 56 -34 85q-33 28 -115 28h-116z" />
    <glyph glyph-name="afii10060" unicode="&#x40b;" horiz-adv-x="774" 
d="M159 648l-42 -175h-46l53 221h528l-53 -221h-46l42 175h-187l-70 -289q81 15 172 15q166 0 166 -113q0 -29 -11 -73l-34 -141h81l-11 -47h-222l11 47h81l35 145q9 36 9 56q0 36 -28.5 56t-101.5 20q-71 0 -159 -14l-63 -263h105l-11 -47h-269l11 47h104l145 601h-189z
" />
    <glyph glyph-name="afii10061" unicode="&#x40c;" horiz-adv-x="620" 
d="M181 365l350 285h-79l10 44h218l-11 -44h-59l-356 -288l248 -316h63l-11 -46h-203l11 46h65zM45 46l145 604h-71l10 44h202l-10 -44h-71l-145 -604h71l-11 -46h-202l11 46h71zM322 755h-45l119 170h72z" />
    <glyph glyph-name="afii10062" unicode="&#x40e;" horiz-adv-x="634" 
d="M709 648h-77l-418 -648h-158l10 46h115l81 128l-107 474h-65l11 46h197l-11 -46h-64l87 -405l263 405h-70l11 46h206zM341 864q2 -35 23 -55t65 -20q46 0 77 20q28 18 49 55l40 -18q-19 -49 -68 -76q-45 -24 -103 -24q-60 0 -91 24q-36 28 -40 76z" />
    <glyph glyph-name="afii10145" unicode="&#x40f;" horiz-adv-x="716" 
d="M743 648h-81l-144 -597h81l-12 -51h-283l-46 -190h-58l46 190h-283l12 51h81l144 597h-81l11 46h231l-11 -46h-90l-144 -597h342l144 597h-80l11 46h221z" />
    <glyph glyph-name="afii10017" unicode="&#x410;" horiz-adv-x="611" 
d="M184 312h250l-36 338h-37zM-13 46l316 604h-81l10 44h309l-10 -44h-74l67 -604h76l-11 -46h-227l11 46h89l-23 220h-279l-115 -220h84l-11 -46h-232l11 46h90z" />
    <glyph glyph-name="afii10018" unicode="&#x411;" horiz-adv-x="599" 
d="M550 517h-50l32 131h-271l-60 -248h133q96 0 142 -48q39 -41 39 -109q0 -116 -86 -186q-70 -57 -174 -57h-291l11 47h81l145 601h-81l11 46h462zM189 349l-73 -302h146q84 0 143 63q49 52 49 131q0 53 -32 80q-33 28 -99 28h-134z" />
    <glyph glyph-name="afii10019" unicode="&#x412;" horiz-adv-x="565" 
d="M42 46l145 604h-72l10 44h213q91 0 145.5 -41t54.5 -115q0 -61 -37 -108t-102 -65q92 -49 92 -152q0 -57 -24.5 -101.5t-61.5 -70.5q-29 -20 -72 -29.5t-71 -10.5t-87 -1h-216l11 46h72zM185 396h136q70 0 116 38t46 101q0 115 -156 115h-81zM101 46h100q102 0 141 16
q40 17 66 58t26 94q0 37 -15 64t-34 40.5t-46.5 21t-43 9t-32.5 1.5h-89z" />
    <glyph glyph-name="afii10020" unicode="&#x413;" horiz-adv-x="577" 
d="M572 517h-50l32 131h-292l-144 -597h81l-12 -51h-222l12 51h81l144 597h-81l11 46h483z" />
    <glyph glyph-name="afii10021" unicode="&#x414;" horiz-adv-x="689" 
d="M575 51l-50 -210h-51l38 159h-535l-38 -159h-50l50 210h60q93 91 157 230q55 119 88 256l26 111h-83l12 46h528l-11 -46h-81l-144 -597h84zM575 648h-248l-27 -112q-34 -144 -98 -276q-56 -117 -136 -209h365z" />
    <glyph glyph-name="afii10022" unicode="&#x415;" horiz-adv-x="618" 
d="M43 46l145 604h-72l10 44h490l-51 -213h-50l41 169h-309l-61 -254h252l-11 -46h-252l-73 -304h317l39 167h50l-51 -213h-497l11 46h72z" />
    <glyph glyph-name="afii10024" unicode="&#x416;" horiz-adv-x="930" 
d="M423 47h74l-11 -47h-208l11 47h74l145 601h-75l11 46h210l-11 -46h-75zM501 371l321 277h-62l11 46h200l-11 -46h-67l-325 -277l187 -324h65l-11 -47h-204l11 47h63zM441 371l-187 277h62l11 46h-200l-11 -46h67l190 -271l-342 -330h-65l-11 -47h204l11 47h-63z" />
    <glyph glyph-name="afii10025" unicode="&#x417;" horiz-adv-x="596" 
d="M69 188q-10 -82 51 -126q38 -27 94 -27q106 0 169 66q52 54 52 127q0 59 -39 89q-34 27 -93 27h-50l12 52h50q68 0 121 40q29 22 47 55.5t18 68.5q0 41 -25 68q-26 28 -83 28q-116 0 -203 -96l-16 -69h-56l49 203h54l-15 -60q91 72 200 72q87 0 128 -45q33 -35 33 -89
q0 -72 -54 -129q-45 -48 -119 -69v-3q45 -12 73 -43q32 -37 32 -90q0 -56 -27 -111.5t-87 -93.5q-74 -47 -177 -47q-104 0 -153 58q-45 52 -39 129z" />
    <glyph glyph-name="afii10026" unicode="&#x418;" horiz-adv-x="763" 
d="M634 0h-222l11 47h81l137 566l-528 -613h-150l11 47h81l145 603h-81l11 44h222l-11 -44h-81l-136 -568l528 612h149l-11 -44h-81l-145 -603h81z" />
    <glyph glyph-name="afii10027" unicode="&#x419;" horiz-adv-x="763" 
d="M404 864q2 -35 23 -55t65 -20q46 0 77 20q28 18 49 55l40 -18q-21 -50 -69 -76q-45 -24 -103 -24q-60 0 -91 24q-34 26 -39 76zM634 0h-222l12 51h81l136 562l-528 -613h-150l12 51h81l144 597h-81l11 46h222l-11 -46h-81l-136 -566l528 612h149l-11 -46h-81l-144 -597
h81z" />
    <glyph glyph-name="afii10028" unicode="&#x41a;" horiz-adv-x="620" 
d="M181 365l350 285h-79l10 44h218l-11 -44h-59l-356 -288l248 -316h63l-11 -46h-203l11 46h65zM45 46l145 604h-71l10 44h202l-10 -44h-71l-145 -604h71l-11 -46h-202l11 46h71z" />
    <glyph glyph-name="afii10029" unicode="&#x41b;" horiz-adv-x="709" 
d="M580 0h-222l12 51h81l144 597h-265l-41 -167q-39 -158 -70 -246q-44 -127 -110 -185q-60 -53 -140 -53q-24 0 -39 3l11 50q15 -3 30 -3q70 0 121 57q44 51 83 171q32 100 64 228l35 145h-87l11 46h549l-11 -46h-81l-144 -597h81z" />
    <glyph glyph-name="afii10030" unicode="&#x41c;" horiz-adv-x="868" 
d="M41 46l144 604h-66l10 44h156l96 -571l364 571h168l-10 -44h-72l-145 -604h72l-11 -46h-203l11 46h72l145 604l-425 -664l-112 664l-145 -604h67l-11 -46h-183l11 46h67z" />
    <glyph glyph-name="afii10031" unicode="&#x41d;" horiz-adv-x="706" 
d="M45 46l145 604h-71l10 44h202l-10 -44h-71l-62 -254h353l61 254h-71l10 44h203l-11 -44h-71l-145 -604h71l-11 -46h-202l11 46h71l73 304h-353l-72 -304h71l-11 -46h-202l11 46h71z" />
    <glyph glyph-name="afii10032" unicode="&#x41e;" horiz-adv-x="752" 
d="M29 272q0 158 107 285q128 150 300 150q128 0 207 -77.5t79 -204.5q0 -165 -110 -294q-63 -74 -142.5 -109.5t-158.5 -35.5q-122 0 -199 76q-83 81 -83 210zM429 651q-139 0 -245 -123q-98 -113 -98 -249q0 -105 64 -170t170 -65q95 0 178 59q84 59 125.5 148t41.5 174
q0 101 -67 163.5t-169 62.5z" />
    <glyph glyph-name="afii10033" unicode="&#x41f;" horiz-adv-x="716" 
d="M-25 51h81l144 597h-81l11 46h624l-11 -46h-81l-144 -597h81l-12 -51h-231l12 51h90l144 597h-342l-144 -597h80l-12 -51h-221z" />
    <glyph glyph-name="afii10034" unicode="&#x420;" horiz-adv-x="551" 
d="M173 340h128q83 0 131 44.5t48 123.5q0 65 -43.5 103.5t-120.5 38.5h-70zM42 46l145 604h-72l10 44h197q100 0 157.5 -48.5t57.5 -132.5q0 -98 -65.5 -157.5t-174.5 -59.5h-136l-60 -250h77l-12 -46h-207l11 46h72z" />
    <glyph glyph-name="afii10035" unicode="&#x421;" horiz-adv-x="718" 
d="M604 187l36 -31q-58 -75 -141 -122.5t-179 -47.5q-126 0 -205 77q-86 83 -86 212q0 154 111 281q131 150 313 150q157 0 230 -104l22 92h53l-46 -192h-41q-8 37 -24.5 65t-38.5 44t-42.5 27t-44 15t-35.5 5t-25 1q-160 0 -275 -131q-99 -113 -99 -251q0 -106 65.5 -171
t172.5 -65q80 0 153 42t126 104z" />
    <glyph glyph-name="afii10036" unicode="&#x422;" horiz-adv-x="579" 
d="M181 46l145 604h-176l-50 -209h-48l61 253h508l-61 -253h-48l51 209h-177l-145 -604h72l-11 -46h-203l11 46h71z" />
    <glyph glyph-name="afii10037" unicode="&#x423;" horiz-adv-x="634" 
d="M709 648h-77l-418 -648h-158l10 46h115l81 128l-107 474h-65l11 46h197l-11 -46h-64l87 -405l263 405h-70l11 46h206z" />
    <glyph glyph-name="afii10038" unicode="&#x424;" horiz-adv-x="731" 
d="M467 648l-14 -55q104 0 165 -38q83 -52 83 -156q0 -64 -31.5 -121.5t-83.5 -96.5q-90 -66 -247 -64l-16 -66h86l-12 -51h-232l12 51h86l16 66q-73 0 -119 14q-129 39 -129 177q0 70 36 129.5t96 97.5q90 56 230 58l14 55h-86l11 46h232l-11 -46h-86zM382 544h-17
q-80 0 -144 -31q-10 -5 -20.5 -11t-32.5 -25t-38 -40t-28.5 -56t-12.5 -74q0 -60 34 -95q45 -46 149 -46h19zM442 544l-91 -378h19q108 0 175 46q43 29 70.5 81t27.5 108q0 74 -56 112q-46 31 -128 31h-17z" />
    <glyph glyph-name="afii10039" unicode="&#x425;" horiz-adv-x="528" 
d="M-36 46l278 310l-113 294h-73l10 44h203l-11 -44h-67l95 -246l222 246h-76l10 44h203l-11 -44h-64l-266 -295l120 -309h72l-11 -46h-203l11 46h70l-102 261l-235 -261h73l-12 -46h-202l11 46h68z" />
    <glyph glyph-name="afii10040" unicode="&#x426;" horiz-adv-x="716" 
d="M743 648h-81l-144 -597h86l-48 -202h-50l36 151h-579l12 51h81l144 597h-81l11 46h231l-11 -46h-90l-144 -597h342l144 597h-80l11 46h221z" />
    <glyph glyph-name="afii10041" unicode="&#x427;" horiz-adv-x="647" 
d="M677 650h-81l-145 -599h81l-12 -51h-230l12 51h89l66 274q-87 -15 -172 -15q-77 0 -117 25q-49 30 -49 90q0 23 11 71l38 154h-81l10 44h222l-10 -44h-81l-39 -158q-9 -36 -9 -57q0 -36 28.5 -55.5t101.5 -19.5q78 0 159 14l67 276h-85l10 44h226z" />
    <glyph glyph-name="afii10042" unicode="&#x428;" horiz-adv-x="958" 
d="M996 694l-11 -46h-81l-144 -597h91l-12 -51h-876l12 51h81l144 597h-81l11 46h222l-11 -46h-81l-144 -597h262l144 597h-81l11 46h222l-11 -46h-81l-144 -597h262l144 597h-81l11 46h222z" />
    <glyph glyph-name="afii10043" unicode="&#x429;" horiz-adv-x="958" 
d="M851 51l-49 -204h-51l37 153h-825l12 51h81l144 597h-81l11 46h222l-11 -46h-81l-144 -597h262l144 597h-81l11 46h222l-11 -46h-81l-144 -597h262l144 597h-81l11 46h222l-11 -46h-81l-144 -597h91z" />
    <glyph glyph-name="afii10044" unicode="&#x42a;" horiz-adv-x="734" 
d="M510 648h-87l-62 -257h140q96 0 143 -51q37 -41 37 -101q0 -50 -24 -101t-68 -84q-73 -54 -183 -54h-289l12 51h90l144 597h-206l-52 -216h-50l63 262h403zM349 340l-70 -289h120q93 0 145 34q34 23 53.5 61t19.5 79q0 56 -37 87q-36 28 -113 28h-118z" />
    <glyph glyph-name="afii10045" unicode="&#x42b;" horiz-adv-x="835" 
d="M706 0h-222l12 51h81l144 597h-81l11 46h222l-11 -46h-81l-144 -597h81zM341 648h-81l-62 -257h139q96 0 143 -51q37 -41 37 -101q0 -50 -24 -101t-68 -84q-77 -57 -183 -54h-279l12 51h81l144 597h-81l11 46h222zM186 340l-70 -289h112q93 0 145 34q34 23 53.5 61
t19.5 79q0 56 -37 87q-36 28 -113 28h-110z" />
    <glyph glyph-name="afii10046" unicode="&#x42c;" horiz-adv-x="577" 
d="M-26 51h90l144 597h-81l11 46h222l-11 -46h-81l-62 -257h140q96 0 143 -51q37 -41 37 -101q0 -50 -24 -101t-68 -84q-73 -54 -183 -54h-289zM194 340l-70 -289h120q93 0 145 34q34 23 53.5 61t19.5 79q0 56 -37 87q-36 28 -113 28h-118z" />
    <glyph glyph-name="afii10047" unicode="&#x42d;" horiz-adv-x="771" 
d="M40 228l53 24q5 -92 62.5 -154t153.5 -62q128 0 231 92q88 78 124 196h-345l13 53h345q6 27 6 64q0 78 -36 128q-60 87 -187 87q-96 0 -169 -51t-114 -133h-52l54 222h52l-28 -113q111 125 270 125q144 0 220 -101q48 -65 48 -156q0 -97 -43 -195t-126 -168
q-117 -100 -269 -100q-111 0 -183.5 63.5t-79.5 178.5z" />
    <glyph glyph-name="afii10048" unicode="&#x42e;" horiz-adv-x="991" 
d="M366 694l-11 -46h-86l-65 -268h130q38 145 138 236q99 90 244 90q130 0 192 -74q52 -61 52 -163q0 -74 -23 -155.5t-65 -146.5q-117 -181 -320 -181q-67 0 -115.5 23t-71.5 51.5t-36 69.5t-15 61t-2 41q0 47 10 97h-130l-67 -278h86l-12 -51h-232l12 51h86l144 597h-86
l11 46h232zM712 658q-140 0 -233 -115q-51 -62 -78.5 -146.5t-27.5 -170.5q0 -87 47.5 -139.5t139.5 -52.5q179 0 279 191q60 115 60 247q0 17 -2 35t-13 47t-29.5 50.5t-55.5 37.5t-87 16z" />
    <glyph glyph-name="afii10049" unicode="&#x42f;" horiz-adv-x="639" 
d="M509 0h-219l10 46h78l73 298h-113l-272 -344h-102l10 46h67l235 301q-55 3 -101 37t-46 105q0 49 24.5 94t75.5 75q62 36 152 36h295l-11 -44h-81l-146 -604h81zM524 650h-152q-70 0 -123 -42q-26 -21 -42 -53t-16 -66q0 -41 30.5 -67.5t98.5 -26.5h143z" />
    <glyph glyph-name="afii10065" unicode="&#x430;" horiz-adv-x="508" 
d="M311 123l20 86q-77 34 -146 34q-67 0 -105 -34.5t-38 -80.5q0 -40 28.5 -66.5t68.5 -26.5q36 0 85 27t87 61zM419 47l-11 -47h-126l14 60q-92 -73 -170 -73q-60 0 -99 39t-39 96q0 76 57 121.5t139 45.5q63 0 158 -35l16 65q9 33 9 51q0 35 -28 60t-80 25q-84 0 -147 -85
l-42 23q75 108 192 108q76 0 117.5 -37t41.5 -87q0 -27 -9 -63l-64 -267h71z" />
    <glyph glyph-name="afii10066" unicode="&#x431;" horiz-adv-x="520" 
d="M537 649l-172 -31q-129 -23 -189 -102q-46 -59 -68 -150h4q23 33 53 54.5t58.5 29.5t43.5 10t26 2q80 0 127 -46.5t47 -122.5q0 -36 -9.5 -75.5t-32 -81t-54 -75t-80 -54.5t-106.5 -21q-85 0 -127 50.5t-42 126.5q0 80 48 223q44 133 107 194q65 63 193 89l186 35z
M290 409q-97 0 -156.5 -77t-59.5 -170q0 -58 34.5 -91.5t86.5 -33.5q85 0 149.5 72.5t64.5 173.5q0 58 -32.5 92t-86.5 34z" />
    <glyph glyph-name="afii10067" unicode="&#x432;" horiz-adv-x="485" 
d="M56 488h247q18 0 34 -2.5t41.5 -11.5t40.5 -32t15 -59q0 -50 -30 -83.5t-75 -43.5l-1 -3q68 -12 68 -87q0 -70 -51 -118t-145 -48h-261l11 46h73l95 396h-73zM174 442l-40 -167h114q61 0 94.5 32t33.5 72q0 63 -84 63h-118zM123 229l-44 -183h127q67 0 99.5 35.5
t32.5 79.5q0 23 -10.5 38.5t-27.5 21t-26.5 7t-18.5 1.5h-132z" />
    <glyph glyph-name="afii10068" unicode="&#x433;" horiz-adv-x="453" 
d="M406 329h-48l27 113h-215l-95 -396h73l-11 -46h-202l11 46h73l95 396h-73l11 46h392z" />
    <glyph glyph-name="afii10069" unicode="&#x434;" horiz-adv-x="577" 
d="M459 46l-41 -172h-48l30 126h-413l-30 -126h-48l41 173h57q51 52 85 115q38 71 74 210l17 70h-74l11 46h445l-11 -46h-75l-95 -396h75zM423 442h-189l-16 -68q-29 -123 -71 -207q-29 -61 -80 -121h261z" />
    <glyph glyph-name="afii10070" unicode="&#x435;" horiz-adv-x="532" 
d="M422 97q-80 -112 -211 -112q-93 0 -148.5 56t-55.5 151q0 93 54 178q35 55 90 93t127 38q88 0 141 -58.5t53 -156.5q0 -29 -4 -55h-403q-4 -32 -4 -46q0 -63 38.5 -108.5t112.5 -45.5q101 0 166 92zM75 278h343q7 75 -29 123q-39 53 -112 53q-85 0 -146 -76
q-34 -42 -56 -100z" />
    <glyph glyph-name="afii10072" unicode="&#x436;" horiz-adv-x="733" 
d="M321 46h72l-11 -46h-200l11 46h72l95 396h-60l11 46h176l-11 -46h-60zM609 442h-51l11 46h169l-11 -46h-49l-243 -197l137 -199h70l-11 -46h-95l-167 247zM167 442l146 -195l-285 -247h-95l11 46h62l240 209l-144 187h-53l11 46h169l-11 -46h-51z" />
    <glyph glyph-name="afii10073" unicode="&#x437;" horiz-adv-x="469" 
d="M135 488l-10 -43q40 24 69 36q52 19 96 19q54 0 87 -26q37 -30 37 -80q0 -41 -27 -78q-29 -39 -79 -51l-1 -4q69 -21 69 -96q0 -88 -79 -140q-59 -39 -141 -39q-75 0 -118 33q-43 32 -54 87l52 22q6 -41 32 -65q31 -30 91 -30q64 0 107 31q51 37 51 99q0 37 -27 57
q-21 16 -64 16h-41l11 46h35q46 0 81 23q45 30 45 82q0 31 -24 50q-20 16 -57 16q-35 0 -72 -14q-50 -19 -94 -54l-13 -58h-46l38 161h46z" />
    <glyph glyph-name="afii10074" unicode="&#x438;" horiz-adv-x="550" 
d="M554 488l-11 -46h-70l-95 -396h70l-11 -46h-191l11 46h65l84 354l-348 -400h-123l11 46h70l95 396h-70l11 46h187l-11 -46h-61l-85 -355l348 401h124z" />
    <glyph glyph-name="afii10075" unicode="&#x439;" horiz-adv-x="550" 
d="M500 660q-26 -56 -74.5 -78t-98.5 -22q-56 0 -91 26.5t-38 73.5l46 15q4 -75 90 -75q83 0 124 75zM554 488l-11 -46h-70l-95 -396h70l-11 -46h-191l11 46h65l84 354l-348 -400h-123l11 46h70l95 396h-70l11 46h187l-11 -46h-61l-85 -355l348 401h124z" />
    <glyph glyph-name="afii10076" unicode="&#x43a;" horiz-adv-x="519" 
d="M80 46h72l-11 -46h-200l11 46h72l95 396h-72l11 46h194l-11 -46h-66zM393 442h-61l11 46h184l-11 -46h-53l-265 -191l166 -205h67l-11 -46h-95l-197 247z" />
    <glyph glyph-name="afii10077" unicode="&#x43b;" horiz-adv-x="558" 
d="M445 0h-202l11 46h73l95 396h-190l-14 -58q-34 -139 -60 -212q-27 -79 -61 -118q-4 -4 -8 -8.5t-16.5 -14.5t-24.5 -16t-31 -13.5t-37.5 -6t-43.5 5.5l11 46q71 -15 118 46q29 38 55 125q24 79 43 160l15 64h-69l11 46h442l-11 -46h-73l-95 -396h73z" />
    <glyph glyph-name="afii10078" unicode="&#x43c;" horiz-adv-x="683" 
d="M569 0h-197l11 46h68l90 373l-271 -419h-35l-69 419l-90 -373h68l-11 -46h-194l11 46h73l95 396h-73l11 46h149l63 -418l266 418h152l-10 -46h-73l-96 -396h73z" />
    <glyph glyph-name="afii10079" unicode="&#x43d;" horiz-adv-x="539" 
d="M437 46l-11 -46h-199l11 46h70l43 180h-233l-43 -180h70l-11 -46h-199l11 46h73l95 396h-73l11 46h199l-11 -46h-70l-41 -170h233l41 170h-70l11 46h199l-11 -46h-73l-95 -396h73z" />
    <glyph glyph-name="afii10080" unicode="&#x43e;" horiz-adv-x="527" 
d="M2 192q0 92 56 180q42 66 99.5 97.5t116.5 31.5q77 0 135 -52t58 -154q0 -90 -52 -174q-84 -136 -219 -136q-87 0 -140.5 56.5t-53.5 150.5zM271 454q-68 0 -123 -52q-42 -40 -67.5 -100t-25.5 -115q0 -67 38.5 -111.5t103.5 -44.5q74 0 135 65q37 41 59.5 96t22.5 109
q0 69 -39.5 111t-103.5 42z" />
    <glyph glyph-name="afii10081" unicode="&#x43f;" horiz-adv-x="539" 
d="M437 46l-11 -46h-199l11 46h70l95 396h-233l-95 -396h70l-11 -46h-199l11 46h73l95 396h-73l11 46h491l-11 -46h-73l-95 -396h73z" />
    <glyph glyph-name="afii10082" unicode="&#x440;" horiz-adv-x="572" 
d="M-22 -116l134 558h-71l11 46h126l-12 -52q73 66 152 66q76 0 131.5 -53t55.5 -158q0 -101 -52 -181q-32 -50 -82.5 -85t-117.5 -35q-103 0 -173 90l-47 -196h72l-11 -46h-198l11 46h71zM150 371l-58 -239q70 -94 159 -94q69 0 125 56q74 74 74 191q0 86 -40.5 127.5
t-99.5 41.5q-42 0 -84.5 -24t-75.5 -59z" />
    <glyph glyph-name="afii10083" unicode="&#x441;" 
d="M412 96q-37 -47 -92 -79t-118 -32q-88 0 -141.5 56.5t-53.5 150.5q0 97 55 180q38 59 93 94t117 35q98 0 150 -86l18 73h48l-37 -153h-48q-10 56 -47 88t-88 32q-65 0 -123 -58q-43 -43 -64 -101t-21 -109q0 -75 41.5 -115.5t100.5 -40.5q48 0 94.5 28t80.5 69z" />
    <glyph glyph-name="afii10084" unicode="&#x442;" horiz-adv-x="452" 
d="M418 325h-45l28 117h-128l-95 -396h73l-11 -46h-202l11 46h73l95 396h-134l-28 -117h-45l39 163h408z" />
    <glyph glyph-name="afii10085" unicode="&#x443;" horiz-adv-x="456" 
d="M79 -14l-21 456h-63l11 46h187l-11 -46h-68l15 -387l249 387h-75l11 46h178l-11 -46h-45l-400 -604h-145l11 46h107z" />
    <glyph glyph-name="afii10086" unicode="&#x444;" horiz-adv-x="689" 
d="M449 692l-57 -238q48 36 106 36q67 0 102.5 -42t35.5 -113q0 -110 -49 -206q-72 -143 -206 -143q-59 0 -93 36l-35 -147h73l-11 -46h-202l11 46h73l35 147q-49 -36 -105 -36q-58 0 -97.5 41t-39.5 124q0 61 19.5 126.5t51.5 109.5q72 103 186 103q54 0 89 -36l46 192h-73
l11 46h129zM379 398l-78 -325q31 -39 82 -39q88 0 147 108q49 91 49 186q0 51 -25 82.5t-74 31.5q-60 0 -101 -44zM323 398q-26 44 -81 44q-81 0 -135 -82q-26 -39 -43 -98t-17 -112q0 -60 27.5 -88t67.5 -28q54 0 103 39z" />
    <glyph glyph-name="afii10087" unicode="&#x445;" horiz-adv-x="465" 
d="M-100 0l11 46h58l207 208l-96 188h-56l11 46h179l-11 -46h-64l77 -148l148 148h-64l11 46h183l-12 -46h-54l-191 -192l105 -204h50l-11 -46h-172l11 46h62l-85 164l-163 -164h77l-11 -46h-200z" />
    <glyph glyph-name="afii10088" unicode="&#x446;" horiz-adv-x="541" 
d="M432 46l-41 -172h-48l30 126h-437l11 46h73l95 396h-73l11 46h199l-11 -46h-70l-95 -396h233l95 396h-70l11 46h199l-11 -46h-73l-95 -396h67z" />
    <glyph glyph-name="afii10089" unicode="&#x447;" horiz-adv-x="514" 
d="M507 442h-73l-95 -396h73l-11 -46h-202l11 46h73l41 172q-67 -16 -134 -16q-77 0 -104 40q-16 24 -16 56q0 15 7 50l22 94h-73l11 46h199l-11 -46h-70l-23 -95q-6 -22 -6 -39q0 -21 10 -35q18 -26 78 -26q63 0 121 16l43 179h-70l11 46h199z" />
    <glyph glyph-name="afii10090" unicode="&#x448;" horiz-adv-x="829" 
d="M836 488l-11 -46h-73l-95 -396h73l-11 -46h-782l11 46h73l95 396h-73l11 46h202l-11 -46h-73l-95 -396h234l95 396h-73l11 46h202l-11 -46h-73l-95 -396h234l95 396h-73l11 46h202z" />
    <glyph glyph-name="afii10091" unicode="&#x449;" horiz-adv-x="829" 
d="M729 46l-41 -172h-49l30 126h-732l11 46h73l95 396h-73l11 46h202l-11 -46h-73l-95 -396h234l95 396h-73l11 46h202l-11 -46h-73l-95 -396h234l95 396h-73l11 46h202l-11 -46h-73l-95 -396h72z" />
    <glyph glyph-name="afii10092" unicode="&#x44a;" horiz-adv-x="551" 
d="M358 442h-81l-39 -161h134q58 0 86.5 -29.5t28.5 -77.5q0 -52 -27.5 -91.5t-64.5 -58.5q-47 -24 -126 -24h-232l11 46h78l95 396h-142l-27 -111h-48l38 157h327zM227 235l-45 -189h104q64 0 99 30q43 36 43 92q0 31 -19.5 49t-55.5 18h-126z" />
    <glyph glyph-name="afii10093" unicode="&#x44b;" horiz-adv-x="672" 
d="M558 0h-202l11 46h73l95 396h-73l11 46h202l-11 -46h-73l-95 -396h73zM247 442h-73l-39 -161h124q62 0 89 -33t27 -74q0 -46 -26.5 -87.5t-66.5 -62.5q-51 -26 -126 -24h-217l11 46h73l95 396h-73l11 46h202zM124 235l-45 -189h101q64 0 99 30q42 35 42 92q0 67 -74 67
h-123z" />
    <glyph glyph-name="afii10094" unicode="&#x44c;" horiz-adv-x="441" 
d="M26 46l95 396h-73l11 46h202l-11 -46h-73l-39 -161h134q58 0 86.5 -29.5t28.5 -77.5q0 -52 -27.5 -91.5t-64.5 -58.5q-47 -24 -126 -24h-227l11 46h73zM127 235l-45 -189h104q64 0 99 30q43 36 43 92q0 31 -19.5 49t-55.5 18h-126z" />
    <glyph glyph-name="afii10095" unicode="&#x44d;" horiz-adv-x="537" 
d="M102 316h-48l41 172h47l-18 -75q78 87 189 87q82 0 127 -53t45 -134q0 -60 -24.5 -124.5t-63.5 -107.5q-85 -95 -216 -95q-10 0 -20.5 1t-32 4.5t-40 13.5t-38.5 24.5t-35 40.5t-21 59l50 19q9 -51 46 -82t97 -31q78 0 139.5 49.5t86.5 133.5h-228l11 46h228q6 33 6 54
q0 63 -37.5 98t-98.5 35q-59 0 -111.5 -36.5t-80.5 -98.5z" />
    <glyph glyph-name="afii10096" unicode="&#x44e;" horiz-adv-x="720" 
d="M138 0h-202l11 46h73l95 396h-73l11 46h202l-11 -46h-73l-41 -173h89q17 59 51 107t77 78q67 46 148 46q86 0 130 -52t44 -130q0 -48 -17 -105t-47 -102q-84 -125 -231 -125q-78 0 -124.5 47.5t-46.5 131.5q0 26 5 58h-89l-43 -177h73zM384 37q102 0 167 92q61 87 61 186
q0 43 -13 72t-35 42t-40.5 17.5t-38.5 4.5q-99 0 -165 -90q-29 -39 -45 -91t-16 -100q0 -63 34 -98t91 -35z" />
    <glyph glyph-name="afii10097" unicode="&#x44f;" horiz-adv-x="528" 
d="M414 0h-199l11 46h70l39 161h-91l-198 -207h-115l11 46h80l157 165q-37 4 -66 22q-50 32 -50 95q0 82 74 127q54 33 136 33h258l-11 -46h-73l-95 -396h73zM391 442h-128q-58 0 -96 -30q-42 -33 -42 -85q0 -38 29 -57q25 -17 88 -17h104z" />
    <glyph glyph-name="afii10071" unicode="&#x451;" horiz-adv-x="532" 
d="M422 97q-80 -112 -211 -112q-93 0 -148.5 56t-55.5 151q0 93 54 178q35 55 90 93t127 38q88 0 141 -58.5t53 -156.5q0 -29 -4 -55h-403q-4 -44 -4 -46q0 -63 38 -108.5t113 -45.5q101 0 166 92zM75 278h343q7 75 -29 123q-39 53 -112 53q-85 0 -146 -76q-34 -42 -56 -100
zM157 630q0 16 13 29t30 13q15 0 29 -11.5t14 -30.5q0 -18 -12.5 -31t-30.5 -13q-17 0 -30 13t-13 31zM344 630q0 16 13 29t30 13t29.5 -12.5t12.5 -29.5t-11.5 -30.5t-30.5 -13.5q-17 0 -30 13t-13 31z" />
    <glyph glyph-name="afii10099" unicode="&#x452;" horiz-adv-x="515" 
d="M160 432q83 67 162 67q49 0 81 -26t32 -81q0 -28 -12 -78l-83 -348q-9 -36 -23 -62.5t-30 -41t-36 -23t-37 -11t-37 -2.5q-19 0 -45 4l11 46q18 -4 41 -4q39 0 63.5 21t37.5 74l83 341q14 61 14 79q0 7 -0.5 13t-4.5 17t-11 19t-21.5 14t-34.5 6q-65 0 -163 -81l-79 -329
h71l-11 -46h-198l11 46h72l120 506h-118l11 46h118l12 50h-71l11 46h126l-23 -96h204l-11 -46h-204z" />
    <glyph glyph-name="afii10100" unicode="&#x453;" horiz-adv-x="453" 
d="M406 329h-48l27 113h-215l-95 -396h73l-11 -46h-202l11 46h73l95 396h-73l11 46h392zM230 556h-45l119 170h72z" />
    <glyph glyph-name="afii10101" unicode="&#x454;" horiz-adv-x="516" 
d="M411 316v3q0 50 -30 91t-98 41q-73 0 -135 -50.5t-84 -136.5h227l-11 -46h-226q-5 -23 -5 -47q0 -57 32 -96.5t108 -39.5q23 0 48 4t72.5 31.5t79.5 77.5l40 -19q-30 -48 -70 -80t-80 -44t-62.5 -15.5t-43.5 -3.5q-75 0 -117 34q-63 49 -63 147q0 58 20 117t54 103
q43 56 102.5 84.5t121.5 28.5q100 0 144 -87l18 75h47l-41 -172h-48z" />
    <glyph glyph-name="afii10102" unicode="&#x455;" horiz-adv-x="454" 
d="M-31 0l34 139h47q7 -50 41.5 -77.5t85.5 -27.5q57 0 89 31t32 69q0 23 -13 40.5t-27 26.5t-44 24l-65 33q-46 23 -68.5 48.5t-22.5 64.5q0 56 47 93.5t115 37.5q88 0 145 -66l12 52h48l-33 -139h-48q-5 49 -39 77.5t-85 28.5q-50 0 -78.5 -24.5t-28.5 -57.5
q0 -19 12.5 -34t22 -20.5t33.5 -17.5l69 -35q54 -27 78 -56t24 -71q0 -59 -47.5 -106.5t-131.5 -47.5q-102 0 -145 69l-13 -54h-46z" />
    <glyph glyph-name="afii10103" unicode="&#x456;" horiz-adv-x="243" 
d="M-61 0l11 46h72l94 396h-71l11 46h127l-105 -442h71l-11 -46h-199zM148 691q0 16 10.5 27t26.5 11t27.5 -10.5t11.5 -27.5q0 -16 -11 -27t-28 -11q-16 0 -26.5 11t-10.5 27z" />
    <glyph glyph-name="afii10104" unicode="&#x457;" horiz-adv-x="278" 
d="M-61 0l11 46h72l94 396h-71l11 46h127l-105 -442h71l-11 -46h-199zM39 672q0 14 11.5 25.5t26.5 11.5q14 0 27 -10t13 -27t-12 -29t-28 -12q-14 0 -26 12.5t-12 28.5zM179 672q0 14 12 25.5t27 11.5t26 -11t11 -26q0 -16 -10.5 -28.5t-26.5 -12.5q-15 0 -27 12.5
t-12 28.5z" />
    <glyph glyph-name="afii10105" unicode="&#x458;" horiz-adv-x="243" 
d="M57 488h128l-106 -442q-18 -75 -37.5 -120.5t-44 -66.5t-45 -26.5t-55.5 -6.5h-14q-5 0 -36 4l12 47l31 -2q26 -2 45.5 6.5t32 21.5t23.5 39t17 46.5t15 57.5l95 396h-72zM155 668q0 17 11 27.5t27 10.5q17 0 27.5 -11t10.5 -27t-11 -27t-27 -11t-27 11t-11 27z" />
    <glyph glyph-name="afii10106" unicode="&#x459;" horiz-adv-x="727" 
d="M436 281h126q58 0 86.5 -29.5t28.5 -77.5q0 -52 -27.5 -91.5t-64.5 -58.5q-47 -24 -126 -24h-219l11 46h73l95 396h-190l-14 -58q-34 -139 -60 -212q-27 -79 -61 -118q-50 -58 -122 -58q-22 0 -39 5l11 46q15 -3 28 -3q53 0 90 49q29 38 55 125q24 79 43 160l15 64h-69
l11 46h442l-11 -46h-73zM424 235l-45 -189h97q64 0 99 30q43 36 43 92q0 31 -19.5 49t-55.5 18h-119z" />
    <glyph glyph-name="afii10107" unicode="&#x45a;" horiz-adv-x="713" 
d="M422 281h126q58 0 86.5 -29.5t28.5 -77.5q0 -52 -27.5 -91.5t-64.5 -58.5q-47 -24 -126 -24h-216l11 46h70l45 189h-233l-45 -189h70l-11 -46h-199l11 46h73l95 396h-73l11 46h199l-11 -46h-70l-39 -161h233l39 161h-70l11 46h199l-11 -46h-73zM410 235l-45 -189h97
q64 0 99 30q43 36 43 92q0 31 -19.5 49t-55.5 18h-119z" />
    <glyph glyph-name="afii10108" unicode="&#x45b;" horiz-adv-x="516" 
d="M160 432q83 67 162 67q57 0 85.5 -31.5t28.5 -75.5q0 -26 -10 -66l-68 -280h73l-11 -46h-198l12 46h71l70 287q8 32 8 56q0 28 -18 47.5t-55 19.5q-65 0 -163 -81l-79 -329h71l-11 -46h-198l11 46h72l120 506h-118l11 46h118l12 50h-71l11 46h126l-23 -96h204l-11 -46
h-204z" />
    <glyph glyph-name="afii10109" unicode="&#x45c;" horiz-adv-x="519" 
d="M80 46h72l-11 -46h-200l11 46h72l95 396h-72l11 46h194l-11 -46h-66zM393 442h-61l11 46h184l-11 -46h-53l-265 -191l166 -205h67l-11 -46h-95l-197 247zM271 556h-45l119 170h72z" />
    <glyph glyph-name="afii10110" unicode="&#x45e;" horiz-adv-x="456" 
d="M79 -14l-21 456h-63l11 46h187l-11 -46h-68l15 -387l249 387h-75l11 46h178l-11 -46h-45l-400 -604h-145l11 46h107zM458 660q-21 -49 -68 -76q-43 -24 -105 -24q-53 0 -87 24q-38 30 -44 76l44 15q6 -37 27 -55q23 -20 66 -20t76 20q31 19 47 55z" />
    <glyph glyph-name="afii10193" unicode="&#x45f;" horiz-adv-x="539" 
d="M41 442l11 46h199l-11 -46h-70l-95 -396h233l95 396h-70l11 46h199l-11 -46h-73l-95 -396h73l-11 -46h-491l11 46h73l95 396h-73zM154 0h53l-43 -178h-53z" />
    <glyph glyph-name="afii10050" unicode="&#x490;" horiz-adv-x="560" 
d="M131 694h433l32 133h50l-43 -179h-342l-144 -597h81l-12 -51h-222l12 51h81l144 597h-81z" />
    <glyph glyph-name="afii10098" unicode="&#x491;" horiz-adv-x="354" 
d="M46 442l11 46h344l28 114h48l-39 -160h-263l-95 -396h73l-11 -46h-202l11 46h73l95 396h-73z" />
    <glyph glyph-name="endash" unicode="&#x2013;" 
d="M477 272l-11 -46h-499l11 46h499z" />
    <glyph glyph-name="emdash" unicode="&#x2014;" horiz-adv-x="1011" 
d="M-33 226l11 46h1000l-11 -46h-1000z" />
    <glyph glyph-name="quoteleft" unicode="&#x2018;" horiz-adv-x="240" 
d="M195 582l-25 -104h-59l25 104q15 63 36.5 89.5t72.5 34.5l-10 -40q-26 -3 -38.5 -22t-21.5 -62h20z" />
    <glyph glyph-name="quoteright" unicode="&#x2019;" horiz-adv-x="240" 
d="M147 590l25 104h59l-25 -104q-15 -63 -36.5 -89.5t-72.5 -34.5l10 40q26 3 38.5 22t21.5 62h-20z" />
    <glyph glyph-name="quotedblleft" unicode="&#x201c;" horiz-adv-x="372" 
d="M328 582l-25 -104h-60l25 104q15 63 36.5 89.5t72.5 34.5l-9 -40q-26 -3 -38.5 -22t-21.5 -62h20zM195 582l-25 -104h-59l25 104q15 63 36.5 89.5t72.5 34.5l-10 -40q-26 -3 -38.5 -22t-21.5 -62h20z" />
    <glyph glyph-name="quotedblright" unicode="&#x201d;" horiz-adv-x="372" 
d="M147 590l25 104h59l-25 -104q-15 -63 -36.5 -89.5t-72.5 -34.5l10 40q26 3 38.5 22t21.5 62h-20zM279 590l25 104h60l-25 -104q-15 -63 -36.5 -89.5t-72.5 -34.5l9 40q26 3 39 22t22 62h-21z" />
    <glyph glyph-name="quotedblbase" unicode="&#x201e;" horiz-adv-x="372" 
d="M17 0l25 104h60l-25 -104q-15 -63 -36.5 -89.5t-72.5 -34.5l9 40q26 3 38.5 22t21.5 62h-20zM150 0l25 104h59l-25 -104q-15 -63 -36.5 -89.5t-72.5 -34.5l10 40q26 3 38.5 22t21.5 62h-20z" />
    <glyph glyph-name="dagger" unicode="&#x2020;" horiz-adv-x="505" 
d="M234 378h-141l-10 -40h-43l31 127h43l-10 -40h141l54 228h-40l10 41h133l-10 -41h-40l-55 -228h141l9 40h44l-31 -127h-43l10 40h-141l-126 -526h-53z" />
    <glyph glyph-name="bullet" unicode="&#x2022;" horiz-adv-x="590" 
d="M150 372q0 60 42.5 102t102.5 42q59 0 101.5 -42t42.5 -102q0 -59 -42.5 -102t-102.5 -43t-102 42.5t-42 102.5z" />
    <glyph glyph-name="ellipsis" unicode="&#x2026;" horiz-adv-x="1000" 
d="M-2 0l25 104h57l-25 -104h-57zM331 0l25 104h57l-25 -104h-57zM665 0l25 104h57l-25 -104h-57z" />
    <glyph glyph-name="Euro" unicode="&#x20ac;" horiz-adv-x="775" 
d="M655 416l-33 -39h-455q-12 -35 -15 -66h422l-35 -39h-391q-1 -7 -1 -21q0 -88 52 -146q62 -69 166 -69q82 0 157.5 42.5t127.5 117.5l42 -24q-54 -82 -140.5 -134t-202.5 -52q-144 0 -215 100q-47 66 -47 159q0 18 1 27h-94l32 39h67q6 36 15 66h-83l31 39h66
q43 109 135 188q121 102 268 102q152 0 215 -115l25 103h52l-46 -192h-52q-15 71 -67.5 112.5t-134.5 41.5q-128 0 -228 -87q-72 -62 -109 -153h475z" />
    <glyph glyph-name="afii61352" unicode="&#x2116;" horiz-adv-x="977" 
d="M920 303q-37 0 -63 26t-26 89q0 54 18 113.5t47 99.5q53 75 123 75q13 0 26.5 -4.5t29.5 -15.5t25.5 -36t9.5 -61q0 -108 -56 -198q-56 -88 -134 -88zM931 344q45 0 84 59q22 34 36 85.5t14 90.5q0 86 -58 86q-46 0 -83 -59q-21 -34 -36 -87.5t-15 -90.5q0 -84 58 -84z
M289 617l-136 -566h86l-12 -51h-227l12 51h86l144 597h-86l11 46h156l228 -608l135 562h-87l11 46h227l-11 -46h-86l-156 -648h-64zM797 186l11 46h205l-11 -46h-205z" />
    <glyph glyph-name="trademark" unicode="&#x2122;" horiz-adv-x="833" 
d="M339 710v-25h-85v-234h-33v234h-87v25h205zM452 710l85 -215l79 215h50v-259h-29v234l-88 -234h-24l-93 234v-234h-29v259h49z" />
    <glyph glyph-name="radical" unicode="&#x221a;" horiz-adv-x="725" 
d="M20 436h204l183 -469l163 806h135v-46h-94l-192 -942h-30l-232 600h-137v51z" />
    <glyph glyph-name="infinity" unicode="&#x221e;" horiz-adv-x="660" 
d="M330 286l67 61q39 36 94 36q62 0 95.5 -38t33.5 -87q0 -50 -33 -87.5t-92 -37.5q-57 0 -98 37l-67 60l-67 -61q-40 -36 -93 -36q-62 0 -96 38t-34 87q0 50 33.5 87.5t95.5 37.5q54 0 94 -36zM297 258l-60 53q-12 11 -18.5 15.5t-19.5 9.5t-28 5q-37 0 -60 -24.5
t-23 -58.5q0 -38 24.5 -61t55.5 -23q34 0 69 31zM363 258l60 -53q35 -31 69 -31q31 0 55.5 23t24.5 61q0 35 -22.5 59t-59.5 24q-16 0 -29.5 -5t-19 -9.5l-18.5 -15.5z" />
    <glyph glyph-name="approxequal" unicode="&#x2248;" horiz-adv-x="832" 
d="M746 374q-95 -72 -189 -72q-50 0 -130 30l-27 10q-80 29 -125 29q-84 0 -189 -78v45q95 72 189 72q46 0 127 -29l27 -10q81 -30 128 -30q85 0 189 78v-45zM746 194q-95 -72 -189 -72q-50 0 -130 30l-27 10q-80 29 -125 29q-84 0 -189 -78v45q95 72 189 72q46 0 127 -29
l27 -10q81 -30 128 -30q85 0 189 78v-45z" />
    <glyph glyph-name="notequal" unicode="&#x2260;" horiz-adv-x="833" 
d="M709 406v-39h-245l-48 -138h293v-39h-306l-50 -146l-41 14l45 132h-233v39h247l47 138h-294v39h307l50 145l41 -13l-45 -132h232z" />
    <glyph glyph-name="lessequal" unicode="&#x2264;" horiz-adv-x="833" 
d="M129 332l575 236v-44l-510 -207l510 -207v-43l-575 235v30zM129 186v43l575 -235v-43z" />
    <glyph glyph-name="greaterequal" unicode="&#x2265;" horiz-adv-x="833" 
d="M704 332v-30l-575 -235v43l510 207l-510 207v44zM704 186l-575 -235v43l575 235v-43z" />
    <glyph glyph-name="Acute" unicode="&#xf6c9;" 
d="M262 755h-45l119 170h72z" />
    <glyph glyph-name="Dieresis" unicode="&#xf6cb;" 
d="M154 829q0 16 13 29t30 13q15 0 29 -11.5t14 -30.5t-13 -31.5t-30 -12.5t-30 13t-13 31zM341 829q0 16 13 29t30 13t29.5 -12.5t12.5 -29.5t-11.5 -30.5t-30.5 -13.5q-17 0 -30 13t-13 31z" />
    <glyph glyph-name="cyrBreve" unicode="&#xf6d1;" horiz-adv-x="366" 
d="M283 864q2 -35 23 -55t65 -20q46 0 77 20q28 18 49 55l40 -18q-19 -49 -68 -76q-45 -24 -103 -24q-60 0 -91 24q-36 28 -40 76z" />
    <glyph glyph-name="cyrbreve" unicode="&#xf6d4;" horiz-adv-x="348" 
d="M484 660q-21 -49 -68 -76q-43 -24 -105 -24q-53 0 -87 24q-38 30 -44 76l44 15q6 -37 27 -55q23 -20 66 -20t76 20q31 19 47 55z" />
    <glyph glyph-name="nbspace" horiz-adv-x="233" 
 />
    </font>
</defs>
</svg>
